%TF.GenerationSoftware,KiCad,Pcbnew,7.0.7*%
%TF.CreationDate,2023-10-04T23:23:26-04:00*%
%TF.ProjectId,AcousticsSingleChannel,41636f75-7374-4696-9373-53696e676c65,rev?*%
%TF.SameCoordinates,Original*%
%TF.FileFunction,Copper,L4,Bot*%
%TF.FilePolarity,Positive*%
%FSLAX46Y46*%
G04 Gerber Fmt 4.6, Leading zero omitted, Abs format (unit mm)*
G04 Created by KiCad (PCBNEW 7.0.7) date 2023-10-04 23:23:26*
%MOMM*%
%LPD*%
G01*
G04 APERTURE LIST*
%TA.AperFunction,ComponentPad*%
%ADD10C,1.524000*%
%TD*%
%TA.AperFunction,ComponentPad*%
%ADD11R,1.250000X1.250000*%
%TD*%
%TA.AperFunction,ComponentPad*%
%ADD12C,1.250000*%
%TD*%
%TA.AperFunction,ComponentPad*%
%ADD13R,1.570000X1.570000*%
%TD*%
%TA.AperFunction,ComponentPad*%
%ADD14C,1.570000*%
%TD*%
%TA.AperFunction,ViaPad*%
%ADD15C,0.550000*%
%TD*%
%TA.AperFunction,ViaPad*%
%ADD16C,0.762000*%
%TD*%
%TA.AperFunction,ViaPad*%
%ADD17C,0.508000*%
%TD*%
%TA.AperFunction,Conductor*%
%ADD18C,0.127000*%
%TD*%
%TA.AperFunction,Conductor*%
%ADD19C,0.254000*%
%TD*%
G04 APERTURE END LIST*
D10*
%TO.P,,7*%
%TO.N,/Band Pass Filter/F1_Out*%
X147104060Y-93902005D03*
%TD*%
D11*
%TO.P,J3,1,1*%
%TO.N,GND*%
X156497060Y-100379005D03*
D12*
%TO.P,J3,2,2*%
%TO.N,VCC*%
X156497060Y-97839005D03*
%TO.P,J3,3,3*%
%TO.N,AGND*%
X156497060Y-95299005D03*
%TD*%
D10*
%TO.P,,7*%
%TO.N,/BufferBiasAmp/BBA_OUT*%
X159495850Y-81065985D03*
%TD*%
%TO.P,,7*%
%TO.N,/Band Pass Filter/F2_Out*%
X147193130Y-99264135D03*
%TD*%
%TO.P,,7*%
%TO.N,/OutputAmplifier/Amp_Out*%
X142198850Y-110921425D03*
%TD*%
%TO.P,,7*%
%TO.N,/Band Pass Filter/BPF_OUT*%
X144809960Y-113461855D03*
%TD*%
D11*
%TO.P,J1,1,1*%
%TO.N,/OutputAmplifier/G0_out*%
X156497060Y-110539005D03*
D12*
%TO.P,J1,2,2*%
%TO.N,/OutputAmplifier/G1_out*%
X156497060Y-107999005D03*
%TO.P,J1,3,3*%
%TO.N,/OutputAmplifier/G2_out*%
X156497060Y-105459005D03*
%TD*%
D11*
%TO.P,J2,1,1*%
%TO.N,Net-(J2-Pad1)*%
X156502060Y-120699005D03*
D12*
%TO.P,J2,2,2*%
%TO.N,Net-(U4-CLK)*%
X156502060Y-118159005D03*
%TO.P,J2,3,3*%
%TO.N,Net-(U4-~{CS})*%
X156502060Y-115619005D03*
%TD*%
D13*
%TO.P,J8,1,1*%
%TO.N,GND*%
X141424670Y-85460765D03*
D14*
%TO.P,J8,2,2*%
%TO.N,/BufferBiasAmp/BBA_IN*%
X138884670Y-85460765D03*
%TD*%
D10*
%TO.P,,7*%
%TO.N,/Band Pass Filter/F3_Out*%
X152396430Y-98598235D03*
%TD*%
D15*
%TO.N,VCC*%
X138767240Y-105543095D03*
X160193940Y-90128805D03*
D16*
X141389060Y-117164605D03*
D15*
X154978060Y-106983005D03*
X151644030Y-87656185D03*
X147801310Y-107528845D03*
X152364830Y-117284755D03*
%TO.N,GND*%
X139167562Y-119683005D03*
X149122260Y-107552225D03*
X151944900Y-94238165D03*
X136817060Y-110793005D03*
X152163480Y-85307565D03*
X153525920Y-114393665D03*
X140754060Y-106881405D03*
X160046970Y-82498885D03*
X143949930Y-119125595D03*
D17*
%TO.N,AGND*%
X149557140Y-114758175D03*
D15*
X152335320Y-79738225D03*
X150826680Y-85621885D03*
D17*
X150764750Y-114783685D03*
X150418210Y-119157205D03*
D15*
X153133430Y-87638015D03*
X148585470Y-106241905D03*
D17*
X147541970Y-119149485D03*
X149051900Y-119185215D03*
D15*
X145455910Y-97988195D03*
X142865160Y-116835605D03*
D17*
X148116120Y-114840215D03*
X145497310Y-114958245D03*
X145951630Y-119158415D03*
D15*
X148882060Y-113079005D03*
X151931090Y-97107595D03*
X158568490Y-89270005D03*
D17*
%TO.N,/Band Pass Filter/F1_Out*%
X156883060Y-93013005D03*
D15*
%TO.N,/Band Pass Filter/BPF_OUT*%
X145217250Y-117332995D03*
%TD*%
D18*
%TO.N,/Band Pass Filter/F1_Out*%
X147993060Y-93013005D02*
X149009060Y-93013005D01*
D19*
X156883060Y-93013005D02*
X149009060Y-93013005D01*
D18*
X147104060Y-93902005D02*
X147993060Y-93013005D01*
D19*
%TO.N,/Band Pass Filter/BPF_OUT*%
X145217250Y-117332995D02*
X145217250Y-116016115D01*
X144809960Y-115608825D02*
X145217250Y-116016115D01*
X144809960Y-115608825D02*
X144809960Y-113461855D01*
%TD*%
%TA.AperFunction,Conductor*%
%TO.N,VCC*%
G36*
X160636099Y-79009190D02*
G01*
X160681854Y-79061994D01*
X160693060Y-79113505D01*
X160693060Y-82429604D01*
X160673375Y-82496643D01*
X160669182Y-82500275D01*
X160692037Y-82552272D01*
X160693060Y-82568165D01*
X160693060Y-122533505D01*
X160673375Y-122600544D01*
X160620571Y-122646299D01*
X160569060Y-122657505D01*
X136306060Y-122657505D01*
X136239021Y-122637820D01*
X136193266Y-122585016D01*
X136182060Y-122533505D01*
X136182060Y-121336563D01*
X155749560Y-121336563D01*
X155756958Y-121373754D01*
X155785137Y-121415927D01*
X155827310Y-121444106D01*
X155827312Y-121444107D01*
X155855265Y-121449667D01*
X155864501Y-121451505D01*
X155864502Y-121451505D01*
X157139619Y-121451505D01*
X157147017Y-121450033D01*
X157176808Y-121444107D01*
X157218982Y-121415927D01*
X157247162Y-121373753D01*
X157254560Y-121336563D01*
X157254560Y-120061447D01*
X157247162Y-120024257D01*
X157247161Y-120024255D01*
X157218982Y-119982082D01*
X157176809Y-119953903D01*
X157139619Y-119946505D01*
X157139618Y-119946505D01*
X155864502Y-119946505D01*
X155864501Y-119946505D01*
X155827310Y-119953903D01*
X155785137Y-119982082D01*
X155756958Y-120024255D01*
X155749560Y-120061446D01*
X155749560Y-121336563D01*
X136182060Y-121336563D01*
X136182060Y-119683008D01*
X138760045Y-119683008D01*
X138779988Y-119808931D01*
X138837875Y-119922539D01*
X138928027Y-120012691D01*
X138928029Y-120012692D01*
X138928030Y-120012693D01*
X139041632Y-120070577D01*
X139041633Y-120070577D01*
X139041635Y-120070578D01*
X139167559Y-120090522D01*
X139167562Y-120090522D01*
X139167565Y-120090522D01*
X139293488Y-120070578D01*
X139293489Y-120070577D01*
X139293492Y-120070577D01*
X139407094Y-120012693D01*
X139497250Y-119922537D01*
X139555134Y-119808935D01*
X139575079Y-119683005D01*
X139575079Y-119683001D01*
X139555135Y-119557078D01*
X139555134Y-119557076D01*
X139555134Y-119557075D01*
X139497250Y-119443473D01*
X139497249Y-119443472D01*
X139497248Y-119443470D01*
X139407096Y-119353318D01*
X139293488Y-119295431D01*
X139167565Y-119275488D01*
X139167559Y-119275488D01*
X139041635Y-119295431D01*
X138928027Y-119353318D01*
X138837875Y-119443470D01*
X138779988Y-119557078D01*
X138760045Y-119683001D01*
X138760045Y-119683008D01*
X136182060Y-119683008D01*
X136182060Y-119125598D01*
X143542413Y-119125598D01*
X143562356Y-119251521D01*
X143620243Y-119365129D01*
X143710395Y-119455281D01*
X143710397Y-119455282D01*
X143710398Y-119455283D01*
X143824000Y-119513167D01*
X143824001Y-119513167D01*
X143824003Y-119513168D01*
X143949927Y-119533112D01*
X143949930Y-119533112D01*
X143949933Y-119533112D01*
X144075856Y-119513168D01*
X144075857Y-119513167D01*
X144075860Y-119513167D01*
X144189462Y-119455283D01*
X144279618Y-119365127D01*
X144337502Y-119251525D01*
X144348004Y-119185217D01*
X144352249Y-119158417D01*
X145565375Y-119158417D01*
X145584278Y-119277771D01*
X145639141Y-119385448D01*
X145724596Y-119470903D01*
X145832273Y-119525766D01*
X145951628Y-119544670D01*
X145951630Y-119544670D01*
X145951632Y-119544670D01*
X146070986Y-119525766D01*
X146070987Y-119525765D01*
X146070989Y-119525765D01*
X146178665Y-119470902D01*
X146264117Y-119385450D01*
X146318980Y-119277774D01*
X146318980Y-119277772D01*
X146318981Y-119277771D01*
X146337885Y-119158417D01*
X146337885Y-119158412D01*
X146336471Y-119149487D01*
X147155715Y-119149487D01*
X147174618Y-119268841D01*
X147229481Y-119376518D01*
X147314936Y-119461973D01*
X147422613Y-119516836D01*
X147541968Y-119535740D01*
X147541970Y-119535740D01*
X147541972Y-119535740D01*
X147661326Y-119516836D01*
X147661327Y-119516835D01*
X147661329Y-119516835D01*
X147769005Y-119461972D01*
X147854457Y-119376520D01*
X147909320Y-119268844D01*
X147909320Y-119268842D01*
X147909321Y-119268841D01*
X147922566Y-119185217D01*
X148665645Y-119185217D01*
X148684548Y-119304571D01*
X148739411Y-119412248D01*
X148824866Y-119497703D01*
X148932543Y-119552566D01*
X149051898Y-119571470D01*
X149051900Y-119571470D01*
X149051902Y-119571470D01*
X149171256Y-119552566D01*
X149171257Y-119552565D01*
X149171259Y-119552565D01*
X149278935Y-119497702D01*
X149364387Y-119412250D01*
X149419250Y-119304574D01*
X149419250Y-119304572D01*
X149419251Y-119304571D01*
X149438155Y-119185217D01*
X149438155Y-119185212D01*
X149433719Y-119157207D01*
X150031955Y-119157207D01*
X150050858Y-119276561D01*
X150105721Y-119384238D01*
X150191176Y-119469693D01*
X150298853Y-119524556D01*
X150418208Y-119543460D01*
X150418210Y-119543460D01*
X150418212Y-119543460D01*
X150537566Y-119524556D01*
X150537567Y-119524555D01*
X150537569Y-119524555D01*
X150645245Y-119469692D01*
X150730697Y-119384240D01*
X150785560Y-119276564D01*
X150785560Y-119276562D01*
X150785561Y-119276561D01*
X150804465Y-119157207D01*
X150804465Y-119157202D01*
X150785561Y-119037848D01*
X150730698Y-118930171D01*
X150645243Y-118844716D01*
X150537566Y-118789853D01*
X150418212Y-118770950D01*
X150418208Y-118770950D01*
X150298853Y-118789853D01*
X150191176Y-118844716D01*
X150105721Y-118930171D01*
X150050858Y-119037848D01*
X150031955Y-119157202D01*
X150031955Y-119157207D01*
X149433719Y-119157207D01*
X149419251Y-119065858D01*
X149364388Y-118958181D01*
X149278933Y-118872726D01*
X149171256Y-118817863D01*
X149051902Y-118798960D01*
X149051898Y-118798960D01*
X148932543Y-118817863D01*
X148824866Y-118872726D01*
X148739411Y-118958181D01*
X148684548Y-119065858D01*
X148665645Y-119185212D01*
X148665645Y-119185217D01*
X147922566Y-119185217D01*
X147928225Y-119149487D01*
X147928225Y-119149482D01*
X147909321Y-119030128D01*
X147854458Y-118922451D01*
X147769003Y-118836996D01*
X147661326Y-118782133D01*
X147541972Y-118763230D01*
X147541968Y-118763230D01*
X147422613Y-118782133D01*
X147314936Y-118836996D01*
X147229481Y-118922451D01*
X147174618Y-119030128D01*
X147155715Y-119149482D01*
X147155715Y-119149487D01*
X146336471Y-119149487D01*
X146318981Y-119039058D01*
X146318364Y-119037848D01*
X146264117Y-118931380D01*
X146178665Y-118845928D01*
X146178665Y-118845927D01*
X146178663Y-118845926D01*
X146070986Y-118791063D01*
X145951632Y-118772160D01*
X145951628Y-118772160D01*
X145832273Y-118791063D01*
X145724596Y-118845926D01*
X145639141Y-118931381D01*
X145584278Y-119039058D01*
X145565375Y-119158412D01*
X145565375Y-119158417D01*
X144352249Y-119158417D01*
X144357447Y-119125598D01*
X144357447Y-119125591D01*
X144337503Y-118999668D01*
X144337502Y-118999666D01*
X144337502Y-118999665D01*
X144279618Y-118886063D01*
X144279617Y-118886062D01*
X144279616Y-118886060D01*
X144189464Y-118795908D01*
X144075856Y-118738021D01*
X143949933Y-118718078D01*
X143949927Y-118718078D01*
X143824003Y-118738021D01*
X143710395Y-118795908D01*
X143620243Y-118886060D01*
X143562356Y-118999668D01*
X143542413Y-119125591D01*
X143542413Y-119125598D01*
X136182060Y-119125598D01*
X136182060Y-118159008D01*
X155744798Y-118159008D01*
X155763782Y-118327508D01*
X155819790Y-118487568D01*
X155819791Y-118487569D01*
X155910009Y-118631150D01*
X156029915Y-118751056D01*
X156106154Y-118798960D01*
X156173493Y-118841272D01*
X156173496Y-118841274D01*
X156333556Y-118897282D01*
X156502056Y-118916267D01*
X156502060Y-118916267D01*
X156502064Y-118916267D01*
X156670563Y-118897282D01*
X156670565Y-118897281D01*
X156670567Y-118897281D01*
X156830624Y-118841274D01*
X156974205Y-118751056D01*
X157094111Y-118631150D01*
X157184329Y-118487569D01*
X157240336Y-118327512D01*
X157240336Y-118327510D01*
X157240337Y-118327508D01*
X157259322Y-118159008D01*
X157259322Y-118159001D01*
X157240337Y-117990501D01*
X157184329Y-117830441D01*
X157184327Y-117830438D01*
X157115291Y-117720568D01*
X157094111Y-117686860D01*
X156974205Y-117566954D01*
X156830624Y-117476736D01*
X156830625Y-117476736D01*
X156830623Y-117476735D01*
X156670563Y-117420727D01*
X156502064Y-117401743D01*
X156502056Y-117401743D01*
X156333556Y-117420727D01*
X156173496Y-117476735D01*
X156173493Y-117476737D01*
X156029914Y-117566954D01*
X155910009Y-117686859D01*
X155819792Y-117830438D01*
X155819790Y-117830441D01*
X155763782Y-117990501D01*
X155744798Y-118159001D01*
X155744798Y-118159008D01*
X136182060Y-118159008D01*
X136182060Y-116835608D01*
X142457643Y-116835608D01*
X142477586Y-116961531D01*
X142535473Y-117075139D01*
X142625625Y-117165291D01*
X142625627Y-117165292D01*
X142625628Y-117165293D01*
X142739230Y-117223177D01*
X142739231Y-117223177D01*
X142739233Y-117223178D01*
X142865157Y-117243122D01*
X142865160Y-117243122D01*
X142865163Y-117243122D01*
X142991086Y-117223178D01*
X142991087Y-117223177D01*
X142991090Y-117223177D01*
X143104692Y-117165293D01*
X143194848Y-117075137D01*
X143252732Y-116961535D01*
X143272677Y-116835605D01*
X143272677Y-116835601D01*
X143252733Y-116709678D01*
X143252732Y-116709676D01*
X143252732Y-116709675D01*
X143194848Y-116596073D01*
X143194847Y-116596072D01*
X143194846Y-116596070D01*
X143104694Y-116505918D01*
X142991086Y-116448031D01*
X142865163Y-116428088D01*
X142865157Y-116428088D01*
X142739233Y-116448031D01*
X142625625Y-116505918D01*
X142535473Y-116596070D01*
X142477586Y-116709678D01*
X142457643Y-116835601D01*
X142457643Y-116835608D01*
X136182060Y-116835608D01*
X136182060Y-113461855D01*
X143915560Y-113461855D01*
X143935105Y-113647813D01*
X143935106Y-113647815D01*
X143992885Y-113825641D01*
X144086373Y-113987568D01*
X144211490Y-114126524D01*
X144249490Y-114154133D01*
X144362760Y-114236428D01*
X144481898Y-114289471D01*
X144535133Y-114334721D01*
X144555454Y-114401570D01*
X144555460Y-114402750D01*
X144555460Y-115571543D01*
X144553078Y-115595731D01*
X144550474Y-115608824D01*
X144550474Y-115608827D01*
X144570225Y-115708125D01*
X144570225Y-115708126D01*
X144614716Y-115774711D01*
X144614725Y-115774723D01*
X144626473Y-115792306D01*
X144626476Y-115792309D01*
X144637569Y-115799721D01*
X144656359Y-115815142D01*
X144926431Y-116085214D01*
X144959916Y-116146537D01*
X144962750Y-116172895D01*
X144962750Y-116966911D01*
X144943065Y-117033950D01*
X144926433Y-117054590D01*
X144887562Y-117093461D01*
X144887562Y-117093462D01*
X144829677Y-117207065D01*
X144829676Y-117207068D01*
X144809733Y-117332991D01*
X144809733Y-117332998D01*
X144829676Y-117458921D01*
X144887563Y-117572529D01*
X144977715Y-117662681D01*
X144977717Y-117662682D01*
X144977718Y-117662683D01*
X145091320Y-117720567D01*
X145091321Y-117720567D01*
X145091323Y-117720568D01*
X145217247Y-117740512D01*
X145217250Y-117740512D01*
X145217253Y-117740512D01*
X145343176Y-117720568D01*
X145343177Y-117720567D01*
X145343180Y-117720567D01*
X145456782Y-117662683D01*
X145546938Y-117572527D01*
X145604822Y-117458925D01*
X145624767Y-117332995D01*
X145624767Y-117332991D01*
X145604823Y-117207068D01*
X145604822Y-117207066D01*
X145604822Y-117207065D01*
X145546938Y-117093463D01*
X145546937Y-117093462D01*
X145546936Y-117093460D01*
X145508069Y-117054593D01*
X145474584Y-116993270D01*
X145471750Y-116966912D01*
X145471750Y-116053392D01*
X145474133Y-116029199D01*
X145476736Y-116016114D01*
X145476736Y-116016113D01*
X145463101Y-115947569D01*
X145459366Y-115928789D01*
X145458764Y-115922681D01*
X145456984Y-115916812D01*
X145413037Y-115851041D01*
X145413019Y-115851016D01*
X145400735Y-115832633D01*
X145400734Y-115832631D01*
X145400732Y-115832630D01*
X145400731Y-115832628D01*
X145389639Y-115825217D01*
X145370849Y-115809796D01*
X145180062Y-115619008D01*
X155744798Y-115619008D01*
X155763782Y-115787508D01*
X155819790Y-115947568D01*
X155819791Y-115947569D01*
X155910009Y-116091150D01*
X156029915Y-116211056D01*
X156173493Y-116301272D01*
X156173496Y-116301274D01*
X156333556Y-116357282D01*
X156502056Y-116376267D01*
X156502060Y-116376267D01*
X156502064Y-116376267D01*
X156670563Y-116357282D01*
X156670565Y-116357281D01*
X156670567Y-116357281D01*
X156830624Y-116301274D01*
X156974205Y-116211056D01*
X157094111Y-116091150D01*
X157184329Y-115947569D01*
X157240336Y-115787512D01*
X157240336Y-115787510D01*
X157240337Y-115787508D01*
X157259322Y-115619008D01*
X157259322Y-115619001D01*
X157240337Y-115450501D01*
X157184329Y-115290441D01*
X157184327Y-115290438D01*
X157094111Y-115146860D01*
X156974205Y-115026954D01*
X156907767Y-114985208D01*
X156830626Y-114936737D01*
X156830623Y-114936735D01*
X156670563Y-114880727D01*
X156502064Y-114861743D01*
X156502056Y-114861743D01*
X156333556Y-114880727D01*
X156173496Y-114936735D01*
X156173493Y-114936737D01*
X156029914Y-115026954D01*
X155910009Y-115146859D01*
X155819792Y-115290438D01*
X155819790Y-115290441D01*
X155763782Y-115450501D01*
X155744798Y-115619001D01*
X155744798Y-115619008D01*
X145180062Y-115619008D01*
X145100779Y-115539725D01*
X145067294Y-115478402D01*
X145064460Y-115452044D01*
X145064460Y-115364278D01*
X145084145Y-115297239D01*
X145136949Y-115251484D01*
X145206107Y-115241540D01*
X145261160Y-115266682D01*
X145262384Y-115264999D01*
X145270275Y-115270732D01*
X145377953Y-115325596D01*
X145497308Y-115344500D01*
X145497310Y-115344500D01*
X145497312Y-115344500D01*
X145616666Y-115325596D01*
X145616667Y-115325595D01*
X145616669Y-115325595D01*
X145724345Y-115270732D01*
X145809797Y-115185280D01*
X145864660Y-115077604D01*
X145864660Y-115077602D01*
X145864661Y-115077601D01*
X145883565Y-114958247D01*
X145883565Y-114958242D01*
X145864871Y-114840217D01*
X147729865Y-114840217D01*
X147748768Y-114959571D01*
X147803631Y-115067248D01*
X147889086Y-115152703D01*
X147996763Y-115207566D01*
X148116118Y-115226470D01*
X148116120Y-115226470D01*
X148116122Y-115226470D01*
X148235476Y-115207566D01*
X148235477Y-115207565D01*
X148235479Y-115207565D01*
X148343155Y-115152702D01*
X148428607Y-115067250D01*
X148483470Y-114959574D01*
X148483470Y-114959572D01*
X148483471Y-114959571D01*
X148502375Y-114840217D01*
X148502375Y-114840212D01*
X148489382Y-114758177D01*
X149170885Y-114758177D01*
X149189788Y-114877531D01*
X149244651Y-114985208D01*
X149330106Y-115070663D01*
X149437783Y-115125526D01*
X149557138Y-115144430D01*
X149557140Y-115144430D01*
X149557142Y-115144430D01*
X149676496Y-115125526D01*
X149676497Y-115125525D01*
X149676499Y-115125525D01*
X149784175Y-115070662D01*
X149869627Y-114985210D01*
X149924490Y-114877534D01*
X149924490Y-114877532D01*
X149924491Y-114877531D01*
X149939355Y-114783687D01*
X150378495Y-114783687D01*
X150397398Y-114903041D01*
X150452261Y-115010718D01*
X150537716Y-115096173D01*
X150645393Y-115151036D01*
X150764748Y-115169940D01*
X150764750Y-115169940D01*
X150764752Y-115169940D01*
X150884106Y-115151036D01*
X150884107Y-115151035D01*
X150884109Y-115151035D01*
X150991785Y-115096172D01*
X151077237Y-115010720D01*
X151132100Y-114903044D01*
X151132100Y-114903042D01*
X151132101Y-114903041D01*
X151151005Y-114783687D01*
X151151005Y-114783682D01*
X151132101Y-114664328D01*
X151077238Y-114556651D01*
X150991783Y-114471196D01*
X150884106Y-114416333D01*
X150764752Y-114397430D01*
X150764748Y-114397430D01*
X150645393Y-114416333D01*
X150537716Y-114471196D01*
X150452261Y-114556651D01*
X150397398Y-114664328D01*
X150378495Y-114783682D01*
X150378495Y-114783687D01*
X149939355Y-114783687D01*
X149943395Y-114758177D01*
X149943395Y-114758172D01*
X149924491Y-114638818D01*
X149869628Y-114531141D01*
X149784173Y-114445686D01*
X149682080Y-114393668D01*
X153118403Y-114393668D01*
X153138346Y-114519591D01*
X153196233Y-114633199D01*
X153286385Y-114723351D01*
X153286387Y-114723352D01*
X153286388Y-114723353D01*
X153399990Y-114781237D01*
X153399991Y-114781237D01*
X153399993Y-114781238D01*
X153525917Y-114801182D01*
X153525920Y-114801182D01*
X153525923Y-114801182D01*
X153651846Y-114781238D01*
X153651847Y-114781237D01*
X153651850Y-114781237D01*
X153765452Y-114723353D01*
X153855608Y-114633197D01*
X153913492Y-114519595D01*
X153913493Y-114519591D01*
X153933437Y-114393668D01*
X153933437Y-114393661D01*
X153913493Y-114267738D01*
X153913492Y-114267736D01*
X153913492Y-114267735D01*
X153855608Y-114154133D01*
X153855607Y-114154132D01*
X153855606Y-114154130D01*
X153765454Y-114063978D01*
X153651846Y-114006091D01*
X153525923Y-113986148D01*
X153525917Y-113986148D01*
X153399993Y-114006091D01*
X153286385Y-114063978D01*
X153196233Y-114154130D01*
X153138346Y-114267738D01*
X153118403Y-114393661D01*
X153118403Y-114393668D01*
X149682080Y-114393668D01*
X149676496Y-114390823D01*
X149557142Y-114371920D01*
X149557138Y-114371920D01*
X149437783Y-114390823D01*
X149330106Y-114445686D01*
X149244651Y-114531141D01*
X149189788Y-114638818D01*
X149170885Y-114758172D01*
X149170885Y-114758177D01*
X148489382Y-114758177D01*
X148483471Y-114720858D01*
X148428608Y-114613181D01*
X148343153Y-114527726D01*
X148235476Y-114472863D01*
X148116122Y-114453960D01*
X148116118Y-114453960D01*
X147996763Y-114472863D01*
X147889086Y-114527726D01*
X147803631Y-114613181D01*
X147748768Y-114720858D01*
X147729865Y-114840212D01*
X147729865Y-114840217D01*
X145864871Y-114840217D01*
X145864661Y-114838888D01*
X145809798Y-114731211D01*
X145724343Y-114645756D01*
X145616666Y-114590893D01*
X145497312Y-114571990D01*
X145497308Y-114571990D01*
X145377953Y-114590893D01*
X145270275Y-114645757D01*
X145262384Y-114651491D01*
X145260257Y-114648564D01*
X145214818Y-114673377D01*
X145145126Y-114668393D01*
X145089193Y-114626521D01*
X145064776Y-114561057D01*
X145064460Y-114552211D01*
X145064460Y-114402750D01*
X145084145Y-114335711D01*
X145136949Y-114289956D01*
X145137885Y-114289532D01*
X145257160Y-114236428D01*
X145408430Y-114126524D01*
X145533545Y-113987570D01*
X145627035Y-113825640D01*
X145684815Y-113647811D01*
X145704360Y-113461855D01*
X145684815Y-113275899D01*
X145627035Y-113098070D01*
X145616030Y-113079008D01*
X148474543Y-113079008D01*
X148494486Y-113204931D01*
X148552373Y-113318539D01*
X148642525Y-113408691D01*
X148642527Y-113408692D01*
X148642528Y-113408693D01*
X148756130Y-113466577D01*
X148756131Y-113466577D01*
X148756133Y-113466578D01*
X148882057Y-113486522D01*
X148882060Y-113486522D01*
X148882063Y-113486522D01*
X149007986Y-113466578D01*
X149007987Y-113466577D01*
X149007990Y-113466577D01*
X149121592Y-113408693D01*
X149211748Y-113318537D01*
X149269632Y-113204935D01*
X149269633Y-113204931D01*
X149289577Y-113079008D01*
X149289577Y-113079001D01*
X149269633Y-112953078D01*
X149269632Y-112953076D01*
X149269632Y-112953075D01*
X149211748Y-112839473D01*
X149211747Y-112839472D01*
X149211746Y-112839470D01*
X149121594Y-112749318D01*
X149007986Y-112691431D01*
X148882063Y-112671488D01*
X148882057Y-112671488D01*
X148756133Y-112691431D01*
X148642525Y-112749318D01*
X148552373Y-112839470D01*
X148494486Y-112953078D01*
X148474543Y-113079001D01*
X148474543Y-113079008D01*
X145616030Y-113079008D01*
X145616026Y-113079001D01*
X145533546Y-112936141D01*
X145408429Y-112797185D01*
X145257164Y-112687284D01*
X145257161Y-112687282D01*
X145257160Y-112687282D01*
X145211658Y-112667023D01*
X145086350Y-112611231D01*
X145086344Y-112611229D01*
X144942324Y-112580617D01*
X144903450Y-112572355D01*
X144716470Y-112572355D01*
X144684410Y-112579169D01*
X144533575Y-112611229D01*
X144533569Y-112611231D01*
X144362760Y-112687282D01*
X144362755Y-112687284D01*
X144211490Y-112797185D01*
X144086373Y-112936141D01*
X143992885Y-113098068D01*
X143935106Y-113275894D01*
X143935105Y-113275896D01*
X143915560Y-113461855D01*
X136182060Y-113461855D01*
X136182060Y-110932307D01*
X136201745Y-110865268D01*
X136254549Y-110819513D01*
X136323707Y-110809569D01*
X136387263Y-110838594D01*
X136425037Y-110897372D01*
X136428533Y-110912910D01*
X136429486Y-110918931D01*
X136429487Y-110918934D01*
X136429488Y-110918935D01*
X136468077Y-110994669D01*
X136487373Y-111032539D01*
X136577525Y-111122691D01*
X136577527Y-111122692D01*
X136577528Y-111122693D01*
X136691130Y-111180577D01*
X136691131Y-111180577D01*
X136691133Y-111180578D01*
X136817057Y-111200522D01*
X136817060Y-111200522D01*
X136817063Y-111200522D01*
X136942986Y-111180578D01*
X136942987Y-111180577D01*
X136942990Y-111180577D01*
X137056592Y-111122693D01*
X137146748Y-111032537D01*
X137203363Y-110921425D01*
X141304450Y-110921425D01*
X141323995Y-111107383D01*
X141323996Y-111107385D01*
X141381775Y-111285211D01*
X141475263Y-111447138D01*
X141600380Y-111586094D01*
X141751645Y-111695995D01*
X141751646Y-111695995D01*
X141751650Y-111695998D01*
X141853846Y-111741498D01*
X141922459Y-111772048D01*
X141922465Y-111772050D01*
X142105360Y-111810925D01*
X142105361Y-111810925D01*
X142292339Y-111810925D01*
X142292340Y-111810925D01*
X142475235Y-111772050D01*
X142475237Y-111772048D01*
X142475240Y-111772048D01*
X142498351Y-111761757D01*
X142646050Y-111695998D01*
X142797320Y-111586094D01*
X142922435Y-111447140D01*
X143015925Y-111285210D01*
X143051226Y-111176563D01*
X155744560Y-111176563D01*
X155751958Y-111213754D01*
X155780137Y-111255927D01*
X155822310Y-111284106D01*
X155822312Y-111284107D01*
X155850265Y-111289667D01*
X155859501Y-111291505D01*
X155859502Y-111291505D01*
X157134619Y-111291505D01*
X157142017Y-111290033D01*
X157171808Y-111284107D01*
X157213982Y-111255927D01*
X157242162Y-111213753D01*
X157249560Y-111176563D01*
X157249560Y-109901447D01*
X157242162Y-109864257D01*
X157242161Y-109864255D01*
X157213982Y-109822082D01*
X157171809Y-109793903D01*
X157134619Y-109786505D01*
X157134618Y-109786505D01*
X155859502Y-109786505D01*
X155859501Y-109786505D01*
X155822310Y-109793903D01*
X155780137Y-109822082D01*
X155751958Y-109864255D01*
X155744560Y-109901446D01*
X155744560Y-111176563D01*
X143051226Y-111176563D01*
X143073705Y-111107381D01*
X143093250Y-110921425D01*
X143073705Y-110735469D01*
X143015925Y-110557640D01*
X143013519Y-110553473D01*
X142922436Y-110395711D01*
X142797319Y-110256755D01*
X142646054Y-110146854D01*
X142646051Y-110146852D01*
X142646050Y-110146852D01*
X142600548Y-110126593D01*
X142475240Y-110070801D01*
X142475234Y-110070799D01*
X142331214Y-110040187D01*
X142292340Y-110031925D01*
X142105360Y-110031925D01*
X142073300Y-110038739D01*
X141922465Y-110070799D01*
X141922459Y-110070801D01*
X141751650Y-110146852D01*
X141751645Y-110146854D01*
X141600380Y-110256755D01*
X141475263Y-110395711D01*
X141381775Y-110557638D01*
X141323996Y-110735464D01*
X141323995Y-110735466D01*
X141304450Y-110921425D01*
X137203363Y-110921425D01*
X137204632Y-110918935D01*
X137204633Y-110918931D01*
X137224577Y-110793008D01*
X137224577Y-110793001D01*
X137204633Y-110667078D01*
X137204632Y-110667076D01*
X137204632Y-110667075D01*
X137146748Y-110553473D01*
X137146747Y-110553472D01*
X137146746Y-110553470D01*
X137056594Y-110463318D01*
X136942986Y-110405431D01*
X136817063Y-110385488D01*
X136817057Y-110385488D01*
X136691133Y-110405431D01*
X136577525Y-110463318D01*
X136487373Y-110553470D01*
X136429486Y-110667078D01*
X136428533Y-110673100D01*
X136398604Y-110736235D01*
X136339292Y-110773166D01*
X136269429Y-110772168D01*
X136211197Y-110733558D01*
X136183083Y-110669594D01*
X136182060Y-110653702D01*
X136182060Y-107999008D01*
X155739798Y-107999008D01*
X155758782Y-108167508D01*
X155814790Y-108327568D01*
X155814791Y-108327569D01*
X155905009Y-108471150D01*
X156024915Y-108591056D01*
X156168493Y-108681272D01*
X156168496Y-108681274D01*
X156328556Y-108737282D01*
X156497056Y-108756267D01*
X156497060Y-108756267D01*
X156497064Y-108756267D01*
X156665563Y-108737282D01*
X156665565Y-108737281D01*
X156665567Y-108737281D01*
X156825624Y-108681274D01*
X156969205Y-108591056D01*
X157089111Y-108471150D01*
X157179329Y-108327569D01*
X157235336Y-108167512D01*
X157235336Y-108167510D01*
X157235337Y-108167508D01*
X157254322Y-107999008D01*
X157254322Y-107999001D01*
X157235337Y-107830501D01*
X157179329Y-107670441D01*
X157179327Y-107670438D01*
X157089111Y-107526860D01*
X156969205Y-107406954D01*
X156825624Y-107316736D01*
X156825625Y-107316736D01*
X156825623Y-107316735D01*
X156665563Y-107260727D01*
X156497064Y-107241743D01*
X156497056Y-107241743D01*
X156328556Y-107260727D01*
X156168496Y-107316735D01*
X156168493Y-107316737D01*
X156024914Y-107406954D01*
X155905009Y-107526859D01*
X155814792Y-107670438D01*
X155814790Y-107670441D01*
X155758782Y-107830501D01*
X155739798Y-107999001D01*
X155739798Y-107999008D01*
X136182060Y-107999008D01*
X136182060Y-107552228D01*
X148714743Y-107552228D01*
X148734686Y-107678151D01*
X148792573Y-107791759D01*
X148882725Y-107881911D01*
X148882727Y-107881912D01*
X148882728Y-107881913D01*
X148996330Y-107939797D01*
X148996331Y-107939797D01*
X148996333Y-107939798D01*
X149122257Y-107959742D01*
X149122260Y-107959742D01*
X149122263Y-107959742D01*
X149248186Y-107939798D01*
X149248187Y-107939797D01*
X149248190Y-107939797D01*
X149361792Y-107881913D01*
X149451948Y-107791757D01*
X149509832Y-107678155D01*
X149511054Y-107670441D01*
X149529777Y-107552228D01*
X149529777Y-107552221D01*
X149509833Y-107426298D01*
X149509832Y-107426296D01*
X149509832Y-107426295D01*
X149451948Y-107312693D01*
X149451947Y-107312692D01*
X149451946Y-107312690D01*
X149361794Y-107222538D01*
X149248186Y-107164651D01*
X149122263Y-107144708D01*
X149122257Y-107144708D01*
X148996333Y-107164651D01*
X148882725Y-107222538D01*
X148792573Y-107312690D01*
X148734686Y-107426298D01*
X148714743Y-107552221D01*
X148714743Y-107552228D01*
X136182060Y-107552228D01*
X136182060Y-106881408D01*
X140346543Y-106881408D01*
X140366486Y-107007331D01*
X140424373Y-107120939D01*
X140514525Y-107211091D01*
X140514527Y-107211092D01*
X140514528Y-107211093D01*
X140628130Y-107268977D01*
X140628131Y-107268977D01*
X140628133Y-107268978D01*
X140754057Y-107288922D01*
X140754060Y-107288922D01*
X140754063Y-107288922D01*
X140879986Y-107268978D01*
X140879987Y-107268977D01*
X140879990Y-107268977D01*
X140993592Y-107211093D01*
X141083748Y-107120937D01*
X141141632Y-107007335D01*
X141161577Y-106881405D01*
X141161577Y-106881401D01*
X141141633Y-106755478D01*
X141141632Y-106755476D01*
X141141632Y-106755475D01*
X141083748Y-106641873D01*
X141083747Y-106641872D01*
X141083746Y-106641870D01*
X140993594Y-106551718D01*
X140879986Y-106493831D01*
X140754063Y-106473888D01*
X140754057Y-106473888D01*
X140628133Y-106493831D01*
X140514525Y-106551718D01*
X140424373Y-106641870D01*
X140366486Y-106755478D01*
X140346543Y-106881401D01*
X140346543Y-106881408D01*
X136182060Y-106881408D01*
X136182060Y-106241908D01*
X148177953Y-106241908D01*
X148197896Y-106367831D01*
X148255783Y-106481439D01*
X148345935Y-106571591D01*
X148345937Y-106571592D01*
X148345938Y-106571593D01*
X148459540Y-106629477D01*
X148459541Y-106629477D01*
X148459543Y-106629478D01*
X148585467Y-106649422D01*
X148585470Y-106649422D01*
X148585473Y-106649422D01*
X148711396Y-106629478D01*
X148711397Y-106629477D01*
X148711400Y-106629477D01*
X148825002Y-106571593D01*
X148915158Y-106481437D01*
X148973042Y-106367835D01*
X148992987Y-106241905D01*
X148992987Y-106241901D01*
X148973043Y-106115978D01*
X148973042Y-106115976D01*
X148973042Y-106115975D01*
X148915158Y-106002373D01*
X148915157Y-106002372D01*
X148915156Y-106002370D01*
X148825004Y-105912218D01*
X148711396Y-105854331D01*
X148585473Y-105834388D01*
X148585467Y-105834388D01*
X148459543Y-105854331D01*
X148345935Y-105912218D01*
X148255783Y-106002370D01*
X148197896Y-106115978D01*
X148177953Y-106241901D01*
X148177953Y-106241908D01*
X136182060Y-106241908D01*
X136182060Y-105459008D01*
X155739798Y-105459008D01*
X155758782Y-105627508D01*
X155814790Y-105787568D01*
X155814791Y-105787569D01*
X155905009Y-105931150D01*
X156024915Y-106051056D01*
X156128233Y-106115975D01*
X156168493Y-106141272D01*
X156168496Y-106141274D01*
X156328556Y-106197282D01*
X156497056Y-106216267D01*
X156497060Y-106216267D01*
X156497064Y-106216267D01*
X156665563Y-106197282D01*
X156665565Y-106197281D01*
X156665567Y-106197281D01*
X156825624Y-106141274D01*
X156969205Y-106051056D01*
X157089111Y-105931150D01*
X157179329Y-105787569D01*
X157235336Y-105627512D01*
X157235336Y-105627510D01*
X157235337Y-105627508D01*
X157254322Y-105459008D01*
X157254322Y-105459001D01*
X157235337Y-105290501D01*
X157179329Y-105130441D01*
X157179327Y-105130438D01*
X157089110Y-104986859D01*
X156969205Y-104866954D01*
X156825626Y-104776737D01*
X156825623Y-104776735D01*
X156665563Y-104720727D01*
X156497064Y-104701743D01*
X156497056Y-104701743D01*
X156328556Y-104720727D01*
X156168496Y-104776735D01*
X156168493Y-104776737D01*
X156024914Y-104866954D01*
X155905009Y-104986859D01*
X155814792Y-105130438D01*
X155814790Y-105130441D01*
X155758782Y-105290501D01*
X155739798Y-105459001D01*
X155739798Y-105459008D01*
X136182060Y-105459008D01*
X136182060Y-101016563D01*
X155744560Y-101016563D01*
X155751958Y-101053754D01*
X155780137Y-101095927D01*
X155822310Y-101124106D01*
X155822312Y-101124107D01*
X155850265Y-101129667D01*
X155859501Y-101131505D01*
X155859502Y-101131505D01*
X157134619Y-101131505D01*
X157142017Y-101130033D01*
X157171808Y-101124107D01*
X157213982Y-101095927D01*
X157242162Y-101053753D01*
X157249560Y-101016563D01*
X157249560Y-99741447D01*
X157242162Y-99704257D01*
X157242161Y-99704255D01*
X157213982Y-99662082D01*
X157171809Y-99633903D01*
X157134619Y-99626505D01*
X157134618Y-99626505D01*
X155859502Y-99626505D01*
X155859501Y-99626505D01*
X155822310Y-99633903D01*
X155780137Y-99662082D01*
X155751958Y-99704255D01*
X155744560Y-99741446D01*
X155744560Y-101016563D01*
X136182060Y-101016563D01*
X136182060Y-99264134D01*
X146298730Y-99264134D01*
X146318275Y-99450093D01*
X146318276Y-99450095D01*
X146376055Y-99627921D01*
X146469543Y-99789848D01*
X146594660Y-99928804D01*
X146745925Y-100038705D01*
X146745926Y-100038705D01*
X146745930Y-100038708D01*
X146848126Y-100084208D01*
X146916739Y-100114758D01*
X146916745Y-100114760D01*
X147099640Y-100153635D01*
X147099641Y-100153635D01*
X147286619Y-100153635D01*
X147286620Y-100153635D01*
X147469515Y-100114760D01*
X147469517Y-100114758D01*
X147469520Y-100114758D01*
X147492631Y-100104467D01*
X147640330Y-100038708D01*
X147791600Y-99928804D01*
X147916715Y-99789850D01*
X148010205Y-99627920D01*
X148067985Y-99450091D01*
X148087530Y-99264135D01*
X148067985Y-99078179D01*
X148010205Y-98900350D01*
X147916715Y-98738420D01*
X147791600Y-98599466D01*
X147789906Y-98598235D01*
X151502030Y-98598235D01*
X151502682Y-98604434D01*
X151521575Y-98784193D01*
X151521576Y-98784195D01*
X151579355Y-98962021D01*
X151672843Y-99123948D01*
X151797960Y-99262904D01*
X151949225Y-99372805D01*
X151949226Y-99372805D01*
X151949230Y-99372808D01*
X152051426Y-99418308D01*
X152120039Y-99448858D01*
X152120045Y-99448860D01*
X152302940Y-99487735D01*
X152302941Y-99487735D01*
X152489919Y-99487735D01*
X152489920Y-99487735D01*
X152672815Y-99448860D01*
X152672817Y-99448858D01*
X152672820Y-99448858D01*
X152695931Y-99438567D01*
X152843630Y-99372808D01*
X152994900Y-99262904D01*
X153120015Y-99123950D01*
X153213505Y-98962020D01*
X153271285Y-98784191D01*
X153290830Y-98598235D01*
X153271285Y-98412279D01*
X153213505Y-98234450D01*
X153209625Y-98227729D01*
X153120016Y-98072521D01*
X152994899Y-97933565D01*
X152864748Y-97839004D01*
X155613218Y-97839004D01*
X155632533Y-98022769D01*
X155689627Y-98198490D01*
X155689630Y-98198496D01*
X155782016Y-98358513D01*
X155789563Y-98366894D01*
X155789565Y-98366894D01*
X155999049Y-98157410D01*
X156060372Y-98123925D01*
X156130063Y-98128909D01*
X156183684Y-98167787D01*
X156187282Y-98172300D01*
X156187450Y-98172510D01*
X156213851Y-98237200D01*
X156201087Y-98305894D01*
X156178175Y-98337493D01*
X155971790Y-98543877D01*
X155971790Y-98543879D01*
X156055137Y-98604434D01*
X156055138Y-98604435D01*
X156223939Y-98679589D01*
X156404674Y-98718005D01*
X156589446Y-98718005D01*
X156770180Y-98679589D01*
X156938982Y-98604433D01*
X157022328Y-98543878D01*
X157022329Y-98543878D01*
X156813341Y-98334891D01*
X156779856Y-98273568D01*
X156784840Y-98203877D01*
X156816686Y-98156307D01*
X156821088Y-98152223D01*
X156883622Y-98121058D01*
X156953078Y-98128648D01*
X156993105Y-98155445D01*
X157204554Y-98366894D01*
X157204555Y-98366894D01*
X157212100Y-98358516D01*
X157212104Y-98358511D01*
X157304489Y-98198496D01*
X157304492Y-98198490D01*
X157361586Y-98022769D01*
X157380901Y-97839004D01*
X157361586Y-97655240D01*
X157304492Y-97479519D01*
X157304489Y-97479513D01*
X157212104Y-97319498D01*
X157204554Y-97311113D01*
X156995070Y-97520598D01*
X156933747Y-97554083D01*
X156864055Y-97549099D01*
X156810443Y-97510231D01*
X156806678Y-97505510D01*
X156780269Y-97440824D01*
X156793024Y-97372129D01*
X156815943Y-97340515D01*
X157022328Y-97134130D01*
X156938976Y-97073572D01*
X156770180Y-96998420D01*
X156589446Y-96960005D01*
X156404674Y-96960005D01*
X156223939Y-96998420D01*
X156223938Y-96998420D01*
X156055141Y-97073573D01*
X155971790Y-97134129D01*
X155971790Y-97134130D01*
X156180778Y-97343118D01*
X156214263Y-97404441D01*
X156209279Y-97474133D01*
X156177433Y-97521702D01*
X156173031Y-97525786D01*
X156110497Y-97556951D01*
X156041041Y-97549361D01*
X156001014Y-97522564D01*
X155789564Y-97311114D01*
X155789563Y-97311114D01*
X155782018Y-97319494D01*
X155782014Y-97319499D01*
X155689630Y-97479513D01*
X155689627Y-97479519D01*
X155632533Y-97655240D01*
X155613218Y-97839004D01*
X152864748Y-97839004D01*
X152843634Y-97823664D01*
X152843631Y-97823662D01*
X152843630Y-97823662D01*
X152798128Y-97803403D01*
X152672820Y-97747611D01*
X152672814Y-97747609D01*
X152528794Y-97716997D01*
X152489920Y-97708735D01*
X152302940Y-97708735D01*
X152270880Y-97715549D01*
X152120045Y-97747609D01*
X152120039Y-97747611D01*
X151949230Y-97823662D01*
X151949225Y-97823664D01*
X151797960Y-97933565D01*
X151672843Y-98072521D01*
X151579355Y-98234448D01*
X151521576Y-98412274D01*
X151521575Y-98412276D01*
X151513452Y-98489562D01*
X151502030Y-98598235D01*
X147789906Y-98598235D01*
X147640334Y-98489564D01*
X147640331Y-98489562D01*
X147640330Y-98489562D01*
X147594828Y-98469303D01*
X147469520Y-98413511D01*
X147469514Y-98413509D01*
X147291950Y-98375768D01*
X147286620Y-98374635D01*
X147099640Y-98374635D01*
X147094310Y-98375768D01*
X146916745Y-98413509D01*
X146916739Y-98413511D01*
X146745930Y-98489562D01*
X146745925Y-98489564D01*
X146594660Y-98599465D01*
X146469543Y-98738421D01*
X146376055Y-98900348D01*
X146318276Y-99078174D01*
X146318275Y-99078176D01*
X146298730Y-99264134D01*
X136182060Y-99264134D01*
X136182060Y-97988198D01*
X145048393Y-97988198D01*
X145068336Y-98114121D01*
X145126223Y-98227729D01*
X145216375Y-98317881D01*
X145216377Y-98317882D01*
X145216378Y-98317883D01*
X145329980Y-98375767D01*
X145329981Y-98375767D01*
X145329983Y-98375768D01*
X145455907Y-98395712D01*
X145455910Y-98395712D01*
X145455913Y-98395712D01*
X145581836Y-98375768D01*
X145581837Y-98375767D01*
X145581840Y-98375767D01*
X145695442Y-98317883D01*
X145785598Y-98227727D01*
X145843482Y-98114125D01*
X145843483Y-98114121D01*
X145863427Y-97988198D01*
X145863427Y-97988191D01*
X145843483Y-97862268D01*
X145843482Y-97862266D01*
X145843482Y-97862265D01*
X145785598Y-97748663D01*
X145785597Y-97748662D01*
X145785596Y-97748660D01*
X145695444Y-97658508D01*
X145581836Y-97600621D01*
X145455913Y-97580678D01*
X145455907Y-97580678D01*
X145329983Y-97600621D01*
X145216375Y-97658508D01*
X145126223Y-97748660D01*
X145068336Y-97862268D01*
X145048393Y-97988191D01*
X145048393Y-97988198D01*
X136182060Y-97988198D01*
X136182060Y-97107598D01*
X151523573Y-97107598D01*
X151543516Y-97233521D01*
X151601403Y-97347129D01*
X151691555Y-97437281D01*
X151691557Y-97437282D01*
X151691558Y-97437283D01*
X151805160Y-97495167D01*
X151805161Y-97495167D01*
X151805163Y-97495168D01*
X151931087Y-97515112D01*
X151931090Y-97515112D01*
X151931093Y-97515112D01*
X152057016Y-97495168D01*
X152057017Y-97495167D01*
X152057020Y-97495167D01*
X152170622Y-97437283D01*
X152260778Y-97347127D01*
X152318662Y-97233525D01*
X152318663Y-97233521D01*
X152338607Y-97107598D01*
X152338607Y-97107591D01*
X152318663Y-96981668D01*
X152318662Y-96981666D01*
X152318662Y-96981665D01*
X152260778Y-96868063D01*
X152260777Y-96868062D01*
X152260776Y-96868060D01*
X152170624Y-96777908D01*
X152057016Y-96720021D01*
X151931093Y-96700078D01*
X151931087Y-96700078D01*
X151805163Y-96720021D01*
X151691555Y-96777908D01*
X151601403Y-96868060D01*
X151543516Y-96981668D01*
X151523573Y-97107591D01*
X151523573Y-97107598D01*
X136182060Y-97107598D01*
X136182060Y-95299008D01*
X155739798Y-95299008D01*
X155758782Y-95467508D01*
X155814790Y-95627568D01*
X155814791Y-95627569D01*
X155905009Y-95771150D01*
X156024915Y-95891056D01*
X156168493Y-95981272D01*
X156168496Y-95981274D01*
X156328556Y-96037282D01*
X156497056Y-96056267D01*
X156497060Y-96056267D01*
X156497064Y-96056267D01*
X156665563Y-96037282D01*
X156665565Y-96037281D01*
X156665567Y-96037281D01*
X156825624Y-95981274D01*
X156969205Y-95891056D01*
X157089111Y-95771150D01*
X157179329Y-95627569D01*
X157235336Y-95467512D01*
X157235336Y-95467510D01*
X157235337Y-95467508D01*
X157254322Y-95299008D01*
X157254322Y-95299001D01*
X157235337Y-95130501D01*
X157179329Y-94970441D01*
X157179327Y-94970438D01*
X157089110Y-94826859D01*
X156969205Y-94706954D01*
X156825626Y-94616737D01*
X156825623Y-94616735D01*
X156665563Y-94560727D01*
X156497064Y-94541743D01*
X156497056Y-94541743D01*
X156328556Y-94560727D01*
X156168496Y-94616735D01*
X156168493Y-94616737D01*
X156024914Y-94706954D01*
X155905009Y-94826859D01*
X155814792Y-94970438D01*
X155814790Y-94970441D01*
X155758782Y-95130501D01*
X155739798Y-95299001D01*
X155739798Y-95299008D01*
X136182060Y-95299008D01*
X136182060Y-93902004D01*
X146209660Y-93902004D01*
X146229205Y-94087963D01*
X146229206Y-94087965D01*
X146286985Y-94265791D01*
X146380473Y-94427718D01*
X146505590Y-94566674D01*
X146656855Y-94676575D01*
X146656856Y-94676575D01*
X146656860Y-94676578D01*
X146759056Y-94722078D01*
X146827669Y-94752628D01*
X146827675Y-94752630D01*
X147010570Y-94791505D01*
X147010571Y-94791505D01*
X147197549Y-94791505D01*
X147197550Y-94791505D01*
X147380445Y-94752630D01*
X147380447Y-94752628D01*
X147380450Y-94752628D01*
X147403561Y-94742337D01*
X147551260Y-94676578D01*
X147702530Y-94566674D01*
X147827645Y-94427720D01*
X147921135Y-94265790D01*
X147930110Y-94238168D01*
X151537383Y-94238168D01*
X151557326Y-94364091D01*
X151615213Y-94477699D01*
X151705365Y-94567851D01*
X151705367Y-94567852D01*
X151705368Y-94567853D01*
X151818970Y-94625737D01*
X151818971Y-94625737D01*
X151818973Y-94625738D01*
X151944897Y-94645682D01*
X151944900Y-94645682D01*
X151944903Y-94645682D01*
X152070826Y-94625738D01*
X152070827Y-94625737D01*
X152070830Y-94625737D01*
X152184432Y-94567853D01*
X152274588Y-94477697D01*
X152332472Y-94364095D01*
X152352417Y-94238165D01*
X152352417Y-94238161D01*
X152332473Y-94112238D01*
X152332472Y-94112236D01*
X152332472Y-94112235D01*
X152274588Y-93998633D01*
X152274587Y-93998632D01*
X152274586Y-93998630D01*
X152184434Y-93908478D01*
X152070826Y-93850591D01*
X151944903Y-93830648D01*
X151944897Y-93830648D01*
X151818973Y-93850591D01*
X151705365Y-93908478D01*
X151615213Y-93998630D01*
X151557326Y-94112238D01*
X151537383Y-94238161D01*
X151537383Y-94238168D01*
X147930110Y-94238168D01*
X147978915Y-94087961D01*
X147998460Y-93902005D01*
X147978915Y-93716049D01*
X147921135Y-93538220D01*
X147901661Y-93504491D01*
X147885189Y-93436591D01*
X147908042Y-93370565D01*
X147921360Y-93354818D01*
X148035857Y-93240321D01*
X148097179Y-93206839D01*
X148123537Y-93204005D01*
X148799209Y-93204005D01*
X148866248Y-93223690D01*
X148868090Y-93224896D01*
X148909759Y-93252739D01*
X148909762Y-93252739D01*
X148909763Y-93252740D01*
X148983988Y-93267504D01*
X148983992Y-93267505D01*
X148983993Y-93267505D01*
X156546676Y-93267505D01*
X156613715Y-93287190D01*
X156634357Y-93303824D01*
X156656026Y-93325493D01*
X156763703Y-93380356D01*
X156883058Y-93399260D01*
X156883060Y-93399260D01*
X156883062Y-93399260D01*
X157002416Y-93380356D01*
X157002417Y-93380355D01*
X157002419Y-93380355D01*
X157110095Y-93325492D01*
X157195547Y-93240040D01*
X157250410Y-93132364D01*
X157250410Y-93132362D01*
X157250411Y-93132361D01*
X157269315Y-93013007D01*
X157269315Y-93013002D01*
X157250411Y-92893648D01*
X157195548Y-92785971D01*
X157110093Y-92700516D01*
X157002416Y-92645653D01*
X156883062Y-92626750D01*
X156883058Y-92626750D01*
X156763703Y-92645653D01*
X156656026Y-92700516D01*
X156634357Y-92722186D01*
X156573034Y-92755671D01*
X156546676Y-92758505D01*
X148983988Y-92758505D01*
X148909763Y-92773269D01*
X148909759Y-92773271D01*
X148868100Y-92801107D01*
X148801422Y-92821985D01*
X148799209Y-92822005D01*
X148046580Y-92822005D01*
X148028975Y-92819013D01*
X148028877Y-92819889D01*
X148014995Y-92818324D01*
X147995828Y-92820484D01*
X147985790Y-92821615D01*
X147978852Y-92822005D01*
X147971536Y-92822005D01*
X147964395Y-92823634D01*
X147957546Y-92824797D01*
X147928353Y-92828086D01*
X147917968Y-92831720D01*
X147908055Y-92836494D01*
X147885081Y-92854815D01*
X147879415Y-92858836D01*
X147873223Y-92862727D01*
X147873217Y-92862732D01*
X147868048Y-92867901D01*
X147862864Y-92872534D01*
X147839890Y-92890855D01*
X147831182Y-92901775D01*
X147830494Y-92901226D01*
X147820160Y-92915788D01*
X147651139Y-93084809D01*
X147589816Y-93118294D01*
X147520124Y-93113310D01*
X147513022Y-93110407D01*
X147380450Y-93051381D01*
X147380444Y-93051379D01*
X147236423Y-93020767D01*
X147197550Y-93012505D01*
X147010570Y-93012505D01*
X146978510Y-93019319D01*
X146827675Y-93051379D01*
X146827669Y-93051381D01*
X146656860Y-93127432D01*
X146656855Y-93127434D01*
X146505590Y-93237335D01*
X146380473Y-93376291D01*
X146286985Y-93538218D01*
X146229206Y-93716044D01*
X146229205Y-93716046D01*
X146209660Y-93902004D01*
X136182060Y-93902004D01*
X136182060Y-89270008D01*
X158160973Y-89270008D01*
X158180916Y-89395931D01*
X158238803Y-89509539D01*
X158328955Y-89599691D01*
X158328957Y-89599692D01*
X158328958Y-89599693D01*
X158442560Y-89657577D01*
X158442561Y-89657577D01*
X158442563Y-89657578D01*
X158568487Y-89677522D01*
X158568490Y-89677522D01*
X158568493Y-89677522D01*
X158694416Y-89657578D01*
X158694417Y-89657577D01*
X158694420Y-89657577D01*
X158808022Y-89599693D01*
X158898178Y-89509537D01*
X158956062Y-89395935D01*
X158976007Y-89270005D01*
X158976007Y-89270001D01*
X158956063Y-89144078D01*
X158956062Y-89144076D01*
X158956062Y-89144075D01*
X158898178Y-89030473D01*
X158898177Y-89030472D01*
X158898176Y-89030470D01*
X158808024Y-88940318D01*
X158694416Y-88882431D01*
X158568493Y-88862488D01*
X158568487Y-88862488D01*
X158442563Y-88882431D01*
X158328955Y-88940318D01*
X158238803Y-89030470D01*
X158180916Y-89144078D01*
X158160973Y-89270001D01*
X158160973Y-89270008D01*
X136182060Y-89270008D01*
X136182060Y-87638018D01*
X152725913Y-87638018D01*
X152745856Y-87763941D01*
X152803743Y-87877549D01*
X152893895Y-87967701D01*
X152893897Y-87967702D01*
X152893898Y-87967703D01*
X153007500Y-88025587D01*
X153007501Y-88025587D01*
X153007503Y-88025588D01*
X153133427Y-88045532D01*
X153133430Y-88045532D01*
X153133433Y-88045532D01*
X153259356Y-88025588D01*
X153259357Y-88025587D01*
X153259360Y-88025587D01*
X153372962Y-87967703D01*
X153463118Y-87877547D01*
X153521002Y-87763945D01*
X153540947Y-87638015D01*
X153540947Y-87638011D01*
X153521003Y-87512088D01*
X153521002Y-87512086D01*
X153521002Y-87512085D01*
X153463118Y-87398483D01*
X153463117Y-87398482D01*
X153463116Y-87398480D01*
X153372964Y-87308328D01*
X153259356Y-87250441D01*
X153133433Y-87230498D01*
X153133427Y-87230498D01*
X153007503Y-87250441D01*
X152893895Y-87308328D01*
X152803743Y-87398480D01*
X152745856Y-87512088D01*
X152725913Y-87638011D01*
X152725913Y-87638018D01*
X136182060Y-87638018D01*
X136182060Y-85460765D01*
X137967144Y-85460765D01*
X137987194Y-85651529D01*
X137987195Y-85651532D01*
X138046465Y-85833950D01*
X138046468Y-85833956D01*
X138142374Y-86000071D01*
X138142379Y-86000078D01*
X138270724Y-86142619D01*
X138270726Y-86142621D01*
X138425905Y-86255365D01*
X138425906Y-86255366D01*
X138516079Y-86295513D01*
X138601139Y-86333384D01*
X138788762Y-86373265D01*
X138980578Y-86373265D01*
X139168201Y-86333384D01*
X139336791Y-86258323D01*
X140512170Y-86258323D01*
X140519568Y-86295514D01*
X140547747Y-86337687D01*
X140589920Y-86365866D01*
X140589922Y-86365867D01*
X140617875Y-86371427D01*
X140627111Y-86373265D01*
X140627112Y-86373265D01*
X142222229Y-86373265D01*
X142229626Y-86371793D01*
X142259418Y-86365867D01*
X142301592Y-86337687D01*
X142329772Y-86295513D01*
X142337170Y-86258323D01*
X142337170Y-85621888D01*
X150419163Y-85621888D01*
X150439106Y-85747811D01*
X150496993Y-85861419D01*
X150587145Y-85951571D01*
X150587147Y-85951572D01*
X150587148Y-85951573D01*
X150700750Y-86009457D01*
X150700751Y-86009457D01*
X150700753Y-86009458D01*
X150826677Y-86029402D01*
X150826680Y-86029402D01*
X150826683Y-86029402D01*
X150952606Y-86009458D01*
X150952607Y-86009457D01*
X150952610Y-86009457D01*
X151066212Y-85951573D01*
X151156368Y-85861417D01*
X151214252Y-85747815D01*
X151214253Y-85747811D01*
X151234197Y-85621888D01*
X151234197Y-85621881D01*
X151214253Y-85495958D01*
X151214252Y-85495956D01*
X151214252Y-85495955D01*
X151156368Y-85382353D01*
X151156367Y-85382352D01*
X151156366Y-85382350D01*
X151081584Y-85307568D01*
X151755963Y-85307568D01*
X151775906Y-85433491D01*
X151833793Y-85547099D01*
X151923945Y-85637251D01*
X151923947Y-85637252D01*
X151923948Y-85637253D01*
X152037550Y-85695137D01*
X152037551Y-85695137D01*
X152037553Y-85695138D01*
X152163477Y-85715082D01*
X152163480Y-85715082D01*
X152163483Y-85715082D01*
X152289406Y-85695138D01*
X152289407Y-85695137D01*
X152289410Y-85695137D01*
X152403012Y-85637253D01*
X152493168Y-85547097D01*
X152551052Y-85433495D01*
X152559152Y-85382353D01*
X152570997Y-85307568D01*
X152570997Y-85307561D01*
X152551053Y-85181638D01*
X152551052Y-85181636D01*
X152551052Y-85181635D01*
X152493168Y-85068033D01*
X152493167Y-85068032D01*
X152493166Y-85068030D01*
X152403014Y-84977878D01*
X152289406Y-84919991D01*
X152163483Y-84900048D01*
X152163477Y-84900048D01*
X152037553Y-84919991D01*
X151923945Y-84977878D01*
X151833793Y-85068030D01*
X151775906Y-85181638D01*
X151755963Y-85307561D01*
X151755963Y-85307568D01*
X151081584Y-85307568D01*
X151066214Y-85292198D01*
X150952606Y-85234311D01*
X150826683Y-85214368D01*
X150826677Y-85214368D01*
X150700753Y-85234311D01*
X150587145Y-85292198D01*
X150496993Y-85382350D01*
X150439106Y-85495958D01*
X150419163Y-85621881D01*
X150419163Y-85621888D01*
X142337170Y-85621888D01*
X142337170Y-84663207D01*
X142329772Y-84626017D01*
X142329771Y-84626015D01*
X142301592Y-84583842D01*
X142259419Y-84555663D01*
X142222229Y-84548265D01*
X142222228Y-84548265D01*
X140627112Y-84548265D01*
X140627111Y-84548265D01*
X140589920Y-84555663D01*
X140547747Y-84583842D01*
X140519568Y-84626015D01*
X140512170Y-84663206D01*
X140512170Y-86258323D01*
X139336791Y-86258323D01*
X139343433Y-86255366D01*
X139498615Y-86142620D01*
X139618515Y-86009457D01*
X139626960Y-86000078D01*
X139626965Y-86000071D01*
X139722872Y-85833956D01*
X139782146Y-85651529D01*
X139802196Y-85460765D01*
X139782146Y-85270001D01*
X139722872Y-85087574D01*
X139626964Y-84921457D01*
X139626960Y-84921451D01*
X139498615Y-84778910D01*
X139498613Y-84778908D01*
X139343434Y-84666164D01*
X139343433Y-84666163D01*
X139168200Y-84588145D01*
X138980578Y-84548265D01*
X138788762Y-84548265D01*
X138601139Y-84588145D01*
X138601138Y-84588145D01*
X138425906Y-84666163D01*
X138425905Y-84666164D01*
X138270726Y-84778908D01*
X138270724Y-84778910D01*
X138142379Y-84921451D01*
X138142374Y-84921458D01*
X138046468Y-85087573D01*
X138046465Y-85087579D01*
X137987195Y-85269997D01*
X137987194Y-85270001D01*
X137967144Y-85460765D01*
X136182060Y-85460765D01*
X136182060Y-82498888D01*
X159639453Y-82498888D01*
X159659396Y-82624811D01*
X159717283Y-82738419D01*
X159807435Y-82828571D01*
X159807437Y-82828572D01*
X159807438Y-82828573D01*
X159921040Y-82886457D01*
X159921041Y-82886457D01*
X159921043Y-82886458D01*
X160046967Y-82906402D01*
X160046970Y-82906402D01*
X160046973Y-82906402D01*
X160172896Y-82886458D01*
X160172897Y-82886457D01*
X160172900Y-82886457D01*
X160286502Y-82828573D01*
X160376658Y-82738417D01*
X160434542Y-82624815D01*
X160434543Y-82624811D01*
X160446587Y-82548768D01*
X160471049Y-82497164D01*
X160450083Y-82464539D01*
X160446587Y-82449001D01*
X160434543Y-82372958D01*
X160434542Y-82372956D01*
X160434542Y-82372955D01*
X160376658Y-82259353D01*
X160376657Y-82259352D01*
X160376656Y-82259350D01*
X160286504Y-82169198D01*
X160172896Y-82111311D01*
X160046973Y-82091368D01*
X160046971Y-82091368D01*
X160046970Y-82091368D01*
X159991330Y-82100180D01*
X159941570Y-82108061D01*
X159894295Y-82101950D01*
X159846582Y-82149212D01*
X159843970Y-82150582D01*
X159807436Y-82169197D01*
X159717283Y-82259350D01*
X159659396Y-82372958D01*
X159639453Y-82498881D01*
X159639453Y-82498888D01*
X136182060Y-82498888D01*
X136182060Y-81065984D01*
X158601450Y-81065984D01*
X158620995Y-81251943D01*
X158620996Y-81251945D01*
X158678775Y-81429771D01*
X158772263Y-81591698D01*
X158897380Y-81730654D01*
X159048645Y-81840555D01*
X159048646Y-81840555D01*
X159048650Y-81840558D01*
X159150846Y-81886058D01*
X159219459Y-81916608D01*
X159219465Y-81916610D01*
X159402360Y-81955485D01*
X159402361Y-81955485D01*
X159589339Y-81955485D01*
X159589340Y-81955485D01*
X159761893Y-81918808D01*
X159816104Y-81922944D01*
X159816912Y-81920043D01*
X159869057Y-81873539D01*
X159871650Y-81872347D01*
X159943050Y-81840558D01*
X160094320Y-81730654D01*
X160219435Y-81591700D01*
X160312925Y-81429770D01*
X160370705Y-81251941D01*
X160390250Y-81065985D01*
X160370705Y-80880029D01*
X160312925Y-80702200D01*
X160219435Y-80540270D01*
X160094320Y-80401316D01*
X160094319Y-80401315D01*
X159943054Y-80291414D01*
X159943051Y-80291412D01*
X159943050Y-80291412D01*
X159897548Y-80271153D01*
X159772240Y-80215361D01*
X159772234Y-80215359D01*
X159628214Y-80184747D01*
X159589340Y-80176485D01*
X159402360Y-80176485D01*
X159370300Y-80183299D01*
X159219465Y-80215359D01*
X159219459Y-80215361D01*
X159048650Y-80291412D01*
X159048645Y-80291414D01*
X158897380Y-80401315D01*
X158772263Y-80540271D01*
X158678775Y-80702198D01*
X158620996Y-80880024D01*
X158620995Y-80880026D01*
X158601450Y-81065984D01*
X136182060Y-81065984D01*
X136182060Y-79738228D01*
X151927803Y-79738228D01*
X151947746Y-79864151D01*
X152005633Y-79977759D01*
X152095785Y-80067911D01*
X152095787Y-80067912D01*
X152095788Y-80067913D01*
X152209390Y-80125797D01*
X152209391Y-80125797D01*
X152209393Y-80125798D01*
X152335317Y-80145742D01*
X152335320Y-80145742D01*
X152335323Y-80145742D01*
X152461246Y-80125798D01*
X152461247Y-80125797D01*
X152461250Y-80125797D01*
X152574852Y-80067913D01*
X152665008Y-79977757D01*
X152722892Y-79864155D01*
X152742837Y-79738225D01*
X152742837Y-79738221D01*
X152722893Y-79612298D01*
X152722892Y-79612296D01*
X152722892Y-79612295D01*
X152665008Y-79498693D01*
X152665007Y-79498692D01*
X152665006Y-79498690D01*
X152574854Y-79408538D01*
X152461246Y-79350651D01*
X152335323Y-79330708D01*
X152335317Y-79330708D01*
X152209393Y-79350651D01*
X152095785Y-79408538D01*
X152005633Y-79498690D01*
X151947746Y-79612298D01*
X151927803Y-79738221D01*
X151927803Y-79738228D01*
X136182060Y-79738228D01*
X136182060Y-79113505D01*
X136201745Y-79046466D01*
X136254549Y-79000711D01*
X136306060Y-78989505D01*
X160569060Y-78989505D01*
X160636099Y-79009190D01*
G37*
%TD.AperFunction*%
%TD*%
M02*
