%TF.GenerationSoftware,KiCad,Pcbnew,7.0.7*%
%TF.CreationDate,2023-10-04T23:23:25-04:00*%
%TF.ProjectId,AcousticsSingleChannel,41636f75-7374-4696-9373-53696e676c65,rev?*%
%TF.SameCoordinates,Original*%
%TF.FileFunction,Copper,L1,Top*%
%TF.FilePolarity,Positive*%
%FSLAX46Y46*%
G04 Gerber Fmt 4.6, Leading zero omitted, Abs format (unit mm)*
G04 Created by KiCad (PCBNEW 7.0.7) date 2023-10-04 23:23:25*
%MOMM*%
%LPD*%
G01*
G04 APERTURE LIST*
G04 Aperture macros list*
%AMRoundRect*
0 Rectangle with rounded corners*
0 $1 Rounding radius*
0 $2 $3 $4 $5 $6 $7 $8 $9 X,Y pos of 4 corners*
0 Add a 4 corners polygon primitive as box body*
4,1,4,$2,$3,$4,$5,$6,$7,$8,$9,$2,$3,0*
0 Add four circle primitives for the rounded corners*
1,1,$1+$1,$2,$3*
1,1,$1+$1,$4,$5*
1,1,$1+$1,$6,$7*
1,1,$1+$1,$8,$9*
0 Add four rect primitives between the rounded corners*
20,1,$1+$1,$2,$3,$4,$5,0*
20,1,$1+$1,$4,$5,$6,$7,0*
20,1,$1+$1,$6,$7,$8,$9,0*
20,1,$1+$1,$8,$9,$2,$3,0*%
G04 Aperture macros list end*
%TA.AperFunction,SMDPad,CuDef*%
%ADD10RoundRect,0.049500X0.175500X0.650500X-0.175500X0.650500X-0.175500X-0.650500X0.175500X-0.650500X0*%
%TD*%
%TA.AperFunction,SMDPad,CuDef*%
%ADD11RoundRect,0.049500X0.650500X-0.175500X0.650500X0.175500X-0.650500X0.175500X-0.650500X-0.175500X0*%
%TD*%
%TA.AperFunction,SMDPad,CuDef*%
%ADD12R,0.850000X0.850000*%
%TD*%
%TA.AperFunction,ComponentPad*%
%ADD13C,1.524000*%
%TD*%
%TA.AperFunction,SMDPad,CuDef*%
%ADD14R,0.600000X0.800000*%
%TD*%
%TA.AperFunction,SMDPad,CuDef*%
%ADD15R,1.220000X0.400000*%
%TD*%
%TA.AperFunction,ComponentPad*%
%ADD16R,1.250000X1.250000*%
%TD*%
%TA.AperFunction,ComponentPad*%
%ADD17C,1.250000*%
%TD*%
%TA.AperFunction,SMDPad,CuDef*%
%ADD18R,1.100000X1.500000*%
%TD*%
%TA.AperFunction,SMDPad,CuDef*%
%ADD19R,0.494930X1.840420*%
%TD*%
%TA.AperFunction,SMDPad,CuDef*%
%ADD20RoundRect,0.247465X0.000000X0.672745X0.000000X-0.672745X0.000000X-0.672745X0.000000X0.672745X0*%
%TD*%
%TA.AperFunction,SMDPad,CuDef*%
%ADD21R,0.800000X0.600000*%
%TD*%
%TA.AperFunction,ComponentPad*%
%ADD22R,1.570000X1.570000*%
%TD*%
%TA.AperFunction,ComponentPad*%
%ADD23C,1.570000*%
%TD*%
%TA.AperFunction,ViaPad*%
%ADD24C,0.550000*%
%TD*%
%TA.AperFunction,ViaPad*%
%ADD25C,0.762000*%
%TD*%
%TA.AperFunction,ViaPad*%
%ADD26C,0.508000*%
%TD*%
%TA.AperFunction,Conductor*%
%ADD27C,0.127000*%
%TD*%
%TA.AperFunction,Conductor*%
%ADD28C,0.254000*%
%TD*%
G04 APERTURE END LIST*
D10*
%TO.P,U1,1,OUT_A*%
%TO.N,/BufferBiasAmp/BUF_OUT*%
X150077490Y-89603575D03*
%TO.P,U1,2,IN_A-*%
X150727490Y-89603575D03*
%TO.P,U1,3,IN_A+*%
%TO.N,Net-(U1A-IN_A+)*%
X151377490Y-89603575D03*
%TO.P,U1,4,V+*%
%TO.N,VCC*%
X152027490Y-89603575D03*
%TO.P,U1,5,IN_B+*%
%TO.N,AGND*%
X152677490Y-89603575D03*
%TO.P,U1,6,IN_B-*%
%TO.N,Net-(U1B-IN_B-)*%
X153327490Y-89603575D03*
%TO.P,U1,7,OUT_B*%
%TO.N,/Band Pass Filter/F1_Out*%
X153977490Y-89603575D03*
%TO.P,U1,8,OUT_C*%
%TO.N,/BufferBiasAmp/BBA_OUT*%
X153977490Y-83703575D03*
%TO.P,U1,9,IN_C-*%
%TO.N,Net-(U1C-IN_C-)*%
X153327490Y-83703575D03*
%TO.P,U1,10,IN_C+*%
%TO.N,/BufferBiasAmp/BBAmp_IN*%
X152677490Y-83703575D03*
%TO.P,U1,11,V-*%
%TO.N,GND*%
X152027490Y-83703575D03*
%TO.P,U1,12,IN_D+*%
%TO.N,AGND*%
X151377490Y-83703575D03*
%TO.P,U1,13,IN_D-*%
%TO.N,Net-(U1D-IN_D-)*%
X150727490Y-83703575D03*
%TO.P,U1,14,OUT_D*%
%TO.N,/BufferBiasAmp/BBAmp_IN*%
X150077490Y-83703575D03*
%TD*%
D11*
%TO.P,U2,1,OUT_A*%
%TO.N,/Band Pass Filter/F2_Out*%
X145486310Y-104943845D03*
%TO.P,U2,2,IN_A-*%
%TO.N,Net-(U2A-IN_A-)*%
X145486310Y-105593845D03*
%TO.P,U2,3,IN_A+*%
%TO.N,AGND*%
X145486310Y-106243845D03*
%TO.P,U2,4,V+*%
%TO.N,VCC*%
X145486310Y-106893845D03*
%TO.P,U2,5,IN_B+*%
%TO.N,/OutputAmplifier/Amp_Out*%
X145486310Y-107543845D03*
%TO.P,U2,6,IN_B-*%
%TO.N,/Sig_Out*%
X145486310Y-108193845D03*
%TO.P,U2,7,OUT_B*%
X145486310Y-108843845D03*
%TO.P,U2,8,OUT_C*%
%TO.N,/Band Pass Filter/BPF_OUT*%
X151386310Y-108843845D03*
%TO.P,U2,9,IN_C-*%
%TO.N,Net-(U2C-IN_C-)*%
X151386310Y-108193845D03*
%TO.P,U2,10,IN_C+*%
%TO.N,AGND*%
X151386310Y-107543845D03*
%TO.P,U2,11,V-*%
%TO.N,GND*%
X151386310Y-106893845D03*
%TO.P,U2,12,IN_D+*%
%TO.N,AGND*%
X151386310Y-106243845D03*
%TO.P,U2,13,IN_D-*%
%TO.N,Net-(U2D-IN_D-)*%
X151386310Y-105593845D03*
%TO.P,U2,14,OUT_D*%
%TO.N,/Band Pass Filter/F3_Out*%
X151386310Y-104943845D03*
%TD*%
D12*
%TO.P,R7,1,1*%
%TO.N,Net-(U2A-IN_A-)*%
X144410870Y-102000635D03*
%TO.P,R7,2,2*%
%TO.N,/Band Pass Filter/F2_Out*%
X145960870Y-102000635D03*
%TD*%
D13*
%TO.P,,7*%
%TO.N,/Band Pass Filter/F1_Out*%
X147104060Y-93902005D03*
%TD*%
D12*
%TO.P,C13,1,1*%
%TO.N,VCC*%
X136861850Y-107967815D03*
%TO.P,C13,2,2*%
%TO.N,GND*%
X136861850Y-109517815D03*
%TD*%
%TO.P,R5,1,1*%
%TO.N,/BufferBiasAmp/BBA_IN*%
X138763400Y-90530635D03*
%TO.P,R5,2,2*%
%TO.N,Net-(R21-Pad2)*%
X138763400Y-92080635D03*
%TD*%
%TO.P,R13,1,1*%
%TO.N,Net-(U2C-IN_C-)*%
X152494670Y-110704375D03*
%TO.P,R13,2,2*%
%TO.N,/Band Pass Filter/BPF_OUT*%
X150944670Y-110704375D03*
%TD*%
D14*
%TO.P,D2,1,C*%
%TO.N,GND*%
X143143250Y-91021295D03*
%TO.P,D2,2,A*%
%TO.N,Net-(D2-A)*%
X144593250Y-91021295D03*
%TD*%
D12*
%TO.P,R15,1,1*%
%TO.N,/Band Pass Filter/F3_Out*%
X153708060Y-106195005D03*
%TO.P,R15,2,2*%
%TO.N,/Band Pass Filter/F4_In*%
X153708060Y-107745005D03*
%TD*%
%TO.P,C17,1,1*%
%TO.N,GND*%
X141946670Y-106890185D03*
%TO.P,C17,2,2*%
%TO.N,VCC*%
X143496670Y-106890185D03*
%TD*%
%TO.P,R21,1,1*%
%TO.N,Net-(D2-A)*%
X144628910Y-92670045D03*
%TO.P,R21,2,2*%
%TO.N,Net-(R21-Pad2)*%
X143078910Y-92670045D03*
%TD*%
%TO.P,C2,1,1*%
%TO.N,/BufferBiasAmp/BBA_IN*%
X147640580Y-91676535D03*
%TO.P,C2,2,2*%
%TO.N,Net-(U1A-IN_A+)*%
X149190580Y-91676535D03*
%TD*%
%TO.P,R10,1,1*%
%TO.N,AGND*%
X157494670Y-89317815D03*
%TO.P,R10,2,2*%
%TO.N,/Band Pass Filter/F1_In*%
X155944670Y-89317815D03*
%TD*%
D15*
%TO.P,U3,1,OUT*%
%TO.N,/OutputAmplifier/Amp_Out*%
X147064060Y-115914005D03*
%TO.P,U3,2,AGND*%
%TO.N,AGND*%
X147064060Y-116564005D03*
%TO.P,U3,3,IN*%
%TO.N,/Band Pass Filter/BPF_OUT*%
X147064060Y-117214005D03*
%TO.P,U3,4,V-*%
%TO.N,GND*%
X147064060Y-117864005D03*
%TO.P,U3,5,G0*%
%TO.N,/OutputAmplifier/G0_out*%
X149684060Y-117864005D03*
%TO.P,U3,6,G1*%
%TO.N,/OutputAmplifier/G1_out*%
X149684060Y-117214005D03*
%TO.P,U3,7,G2*%
%TO.N,/OutputAmplifier/G2_out*%
X149684060Y-116564005D03*
%TO.P,U3,8,V+*%
%TO.N,VCC*%
X149684060Y-115914005D03*
%TD*%
D12*
%TO.P,C18,1,1*%
%TO.N,VCC*%
X138549900Y-108012515D03*
%TO.P,C18,2,2*%
%TO.N,GND*%
X138549900Y-109562515D03*
%TD*%
%TO.P,C8,1,1*%
%TO.N,/Band Pass Filter/F4_In*%
X148633440Y-112158055D03*
%TO.P,C8,2,2*%
%TO.N,/Band Pass Filter/BPF_OUT*%
X147083440Y-112158055D03*
%TD*%
%TO.P,C1,1,1*%
%TO.N,/BufferBiasAmp/BIAS_IN*%
X147321410Y-87141055D03*
%TO.P,C1,2,2*%
%TO.N,/BufferBiasAmp/BUF_OUT*%
X147321410Y-88691055D03*
%TD*%
%TO.P,R17,1,1*%
%TO.N,AGND*%
X149898060Y-113206005D03*
%TO.P,R17,2,2*%
%TO.N,/Band Pass Filter/F4_In*%
X151448060Y-113206005D03*
%TD*%
%TO.P,R26,1,1*%
%TO.N,Net-(J2-Pad1)*%
X138341060Y-119810005D03*
%TO.P,R26,2,2*%
%TO.N,Net-(U4-ADC_DOUT)*%
X136791060Y-119810005D03*
%TD*%
D16*
%TO.P,J3,1,1*%
%TO.N,GND*%
X156497060Y-100379005D03*
D17*
%TO.P,J3,2,2*%
%TO.N,VCC*%
X156497060Y-97839005D03*
%TO.P,J3,3,3*%
%TO.N,AGND*%
X156497060Y-95299005D03*
%TD*%
D12*
%TO.P,R27,1,1*%
%TO.N,GND*%
X139966060Y-119810005D03*
%TO.P,R27,2,2*%
%TO.N,Net-(J2-Pad1)*%
X141516060Y-119810005D03*
%TD*%
%TO.P,R3,1,1*%
%TO.N,AGND*%
X154047310Y-79978095D03*
%TO.P,R3,2,2*%
%TO.N,Net-(U1C-IN_C-)*%
X154047310Y-81528095D03*
%TD*%
D18*
%TO.P,SW2,1,1*%
%TO.N,Net-(R21-Pad2)*%
X138763400Y-95253425D03*
%TO.P,SW2,2,2*%
%TO.N,VCC*%
X138763400Y-104153435D03*
%TD*%
D13*
%TO.P,,7*%
%TO.N,/BufferBiasAmp/BBA_OUT*%
X159495850Y-81065985D03*
%TD*%
D12*
%TO.P,R25,1,1*%
%TO.N,Net-(D1-A)*%
X160108210Y-86769675D03*
%TO.P,R25,2,2*%
%TO.N,VCC*%
X160108210Y-88319675D03*
%TD*%
%TO.P,C6,1,1*%
%TO.N,/Band Pass Filter/F2_In*%
X142991540Y-100485005D03*
%TO.P,C6,2,2*%
%TO.N,Net-(U2A-IN_A-)*%
X142991540Y-102035005D03*
%TD*%
D13*
%TO.P,,7*%
%TO.N,/Band Pass Filter/F2_Out*%
X147193130Y-99264135D03*
%TD*%
D12*
%TO.P,C11,1,1*%
%TO.N,AGND*%
X143942690Y-116629235D03*
%TO.P,C11,2,2*%
%TO.N,GND*%
X143942690Y-118179235D03*
%TD*%
%TO.P,R12,1,1*%
%TO.N,Net-(U2D-IN_D-)*%
X153835060Y-100887005D03*
%TO.P,R12,2,2*%
%TO.N,/Band Pass Filter/F3_Out*%
X152285060Y-100887005D03*
%TD*%
D13*
%TO.P,,7*%
%TO.N,/OutputAmplifier/Amp_Out*%
X142198850Y-110921425D03*
%TD*%
D12*
%TO.P,R2,1,1*%
%TO.N,Net-(U1D-IN_D-)*%
X150921650Y-80924615D03*
%TO.P,R2,2,2*%
%TO.N,/BufferBiasAmp/BBAmp_IN*%
X152471650Y-80924615D03*
%TD*%
%TO.P,R11,1,1*%
%TO.N,AGND*%
X144578190Y-97988195D03*
%TO.P,R11,2,2*%
%TO.N,/Band Pass Filter/F2_In*%
X143028190Y-97988195D03*
%TD*%
%TO.P,R6,1,1*%
%TO.N,Net-(U1B-IN_B-)*%
X154087290Y-93036605D03*
%TO.P,R6,2,2*%
%TO.N,/Band Pass Filter/F1_Out*%
X154087290Y-91486605D03*
%TD*%
%TO.P,C7,1,1*%
%TO.N,/Band Pass Filter/F3_In*%
X149341340Y-98610085D03*
%TO.P,C7,2,2*%
%TO.N,/Band Pass Filter/F3_Out*%
X150891340Y-98610085D03*
%TD*%
%TO.P,R4,1,1*%
%TO.N,/BufferBiasAmp/BIAS_IN*%
X147339090Y-84856075D03*
%TO.P,R4,2,2*%
%TO.N,Net-(U1D-IN_D-)*%
X147339090Y-83306075D03*
%TD*%
%TO.P,R14,1,1*%
%TO.N,/Band Pass Filter/F2_Out*%
X147694940Y-102013725D03*
%TO.P,R14,2,2*%
%TO.N,/Band Pass Filter/F3_In*%
X149244940Y-102013725D03*
%TD*%
%TO.P,C16,2,2*%
%TO.N,VCC*%
X151935160Y-91461515D03*
%TO.P,C16,1,1*%
%TO.N,GND*%
X151935160Y-93011515D03*
%TD*%
D13*
%TO.P,,7*%
%TO.N,/Band Pass Filter/BPF_OUT*%
X144809960Y-113461855D03*
%TD*%
D16*
%TO.P,J1,1,1*%
%TO.N,/OutputAmplifier/G0_out*%
X156497060Y-110539005D03*
D17*
%TO.P,J1,2,2*%
%TO.N,/OutputAmplifier/G1_out*%
X156497060Y-107999005D03*
%TO.P,J1,3,3*%
%TO.N,/OutputAmplifier/G2_out*%
X156497060Y-105459005D03*
%TD*%
D12*
%TO.P,R16,1,1*%
%TO.N,AGND*%
X150871210Y-97114215D03*
%TO.P,R16,2,2*%
%TO.N,/Band Pass Filter/F3_In*%
X149321210Y-97114215D03*
%TD*%
%TO.P,R1,1,1*%
%TO.N,Net-(U1C-IN_C-)*%
X155815290Y-81133515D03*
%TO.P,R1,2,2*%
%TO.N,/BufferBiasAmp/BBA_OUT*%
X155815290Y-82683515D03*
%TD*%
%TO.P,C10,1,1*%
%TO.N,/Band Pass Filter/F4_In*%
X153708060Y-110412005D03*
%TO.P,C10,2,2*%
%TO.N,Net-(U2C-IN_C-)*%
X153708060Y-108862005D03*
%TD*%
%TO.P,R8,1,1*%
%TO.N,/BufferBiasAmp/BBA_OUT*%
X155898990Y-84263195D03*
%TO.P,R8,2,2*%
%TO.N,/Band Pass Filter/F1_In*%
X155898990Y-85813195D03*
%TD*%
%TO.P,C15,1,1*%
%TO.N,GND*%
X154978060Y-104443005D03*
%TO.P,C15,2,2*%
%TO.N,VCC*%
X154978060Y-105993005D03*
%TD*%
D16*
%TO.P,J2,1,1*%
%TO.N,Net-(J2-Pad1)*%
X156502060Y-120699005D03*
D17*
%TO.P,J2,2,2*%
%TO.N,Net-(U4-CLK)*%
X156502060Y-118159005D03*
%TO.P,J2,3,3*%
%TO.N,Net-(U4-~{CS})*%
X156502060Y-115619005D03*
%TD*%
D12*
%TO.P,C3,1,1*%
%TO.N,/Band Pass Filter/F1_In*%
X155740060Y-91463005D03*
%TO.P,C3,2,2*%
%TO.N,/Band Pass Filter/F1_Out*%
X155740060Y-93013005D03*
%TD*%
%TO.P,C12,1,1*%
%TO.N,GND*%
X152381510Y-114578945D03*
%TO.P,C12,2,2*%
%TO.N,VCC*%
X152381510Y-116128945D03*
%TD*%
%TO.P,C14,1,1*%
%TO.N,GND*%
X153174060Y-96442005D03*
%TO.P,C14,2,2*%
%TO.N,VCC*%
X154724060Y-96442005D03*
%TD*%
D19*
%TO.P,U4,1,~{CS}*%
%TO.N,Net-(U4-~{CS})*%
X139759800Y-112741965D03*
D20*
%TO.P,U4,2,+IN*%
%TO.N,/Sig_Out*%
X139109800Y-112741965D03*
%TO.P,U4,3,-IN*%
%TO.N,GND*%
X138459800Y-112741965D03*
%TO.P,U4,4,GND*%
X137809800Y-112741965D03*
%TO.P,U4,5,VREF*%
%TO.N,VCC*%
X137809800Y-117061665D03*
%TO.P,U4,6,ADC_DOUT*%
%TO.N,Net-(U4-ADC_DOUT)*%
X138459800Y-117061665D03*
%TO.P,U4,7,CLK*%
%TO.N,Net-(U4-CLK)*%
X139109800Y-117061665D03*
%TO.P,U4,8,VCC*%
%TO.N,VCC*%
X139759800Y-117061665D03*
%TD*%
D21*
%TO.P,D1,1,A*%
%TO.N,Net-(D1-A)*%
X160059220Y-85526345D03*
%TO.P,D1,2,K*%
%TO.N,GND*%
X160059220Y-84076345D03*
%TD*%
D12*
%TO.P,C5,1,1*%
%TO.N,/Band Pass Filter/F1_In*%
X158011820Y-91486605D03*
%TO.P,C5,2,2*%
%TO.N,Net-(U1B-IN_B-)*%
X158011820Y-93036605D03*
%TD*%
D22*
%TO.P,J8,1,1*%
%TO.N,GND*%
X141424670Y-85460765D03*
D23*
%TO.P,J8,2,2*%
%TO.N,/BufferBiasAmp/BBA_IN*%
X138884670Y-85460765D03*
%TD*%
D12*
%TO.P,C9,1,1*%
%TO.N,/Band Pass Filter/F3_In*%
X152257210Y-102999515D03*
%TO.P,C9,2,2*%
%TO.N,Net-(U2D-IN_D-)*%
X153807210Y-102999515D03*
%TD*%
%TO.P,C4,1,1*%
%TO.N,/Band Pass Filter/F2_In*%
X144400800Y-100492295D03*
%TO.P,C4,2,2*%
%TO.N,/Band Pass Filter/F2_Out*%
X145950800Y-100492295D03*
%TD*%
D13*
%TO.P,,7*%
%TO.N,/Band Pass Filter/F3_Out*%
X152396430Y-98598235D03*
%TD*%
D12*
%TO.P,R9,1,1*%
%TO.N,/Band Pass Filter/F1_Out*%
X142976990Y-94825455D03*
%TO.P,R9,2,2*%
%TO.N,/Band Pass Filter/F2_In*%
X142976990Y-96375455D03*
%TD*%
D24*
%TO.N,VCC*%
X138767240Y-105543095D03*
X160193940Y-90128805D03*
D25*
X141389060Y-117164605D03*
D24*
X154978060Y-106983005D03*
X151644030Y-87656185D03*
X147801310Y-107528845D03*
X152364830Y-117284755D03*
%TO.N,GND*%
X139167562Y-119683005D03*
X149122260Y-107552225D03*
X151944900Y-94238165D03*
X136817060Y-110793005D03*
X152163480Y-85307565D03*
X153525920Y-114393665D03*
X140754060Y-106881405D03*
X160046970Y-82498885D03*
X143949930Y-119125595D03*
D26*
%TO.N,AGND*%
X149557140Y-114758175D03*
D24*
X152335320Y-79738225D03*
X150826680Y-85621885D03*
D26*
X150764750Y-114783685D03*
X150418210Y-119157205D03*
D24*
X153133430Y-87638015D03*
X148585470Y-106241905D03*
D26*
X147541970Y-119149485D03*
X149051900Y-119185215D03*
D24*
X145455910Y-97988195D03*
X142865160Y-116835605D03*
D26*
X148116120Y-114840215D03*
X145497310Y-114958245D03*
X145951630Y-119158415D03*
D24*
X148882060Y-113079005D03*
X151931090Y-97107595D03*
X158568490Y-89270005D03*
D26*
%TO.N,/Band Pass Filter/F1_Out*%
X156883060Y-93013005D03*
D24*
%TO.N,/Band Pass Filter/BPF_OUT*%
X145217250Y-117332995D03*
%TD*%
D27*
%TO.N,/OutputAmplifier/G0_out*%
X150094060Y-117864005D02*
X149684060Y-117864005D01*
X152836287Y-118413005D02*
X150643060Y-118413005D01*
X156497060Y-111814005D02*
X155105060Y-113206005D01*
X156497060Y-110539005D02*
X156497060Y-111814005D01*
X155105060Y-113206005D02*
X155105060Y-116144232D01*
X155105060Y-116144232D02*
X152836287Y-118413005D01*
X150643060Y-118413005D02*
X150094060Y-117864005D01*
%TO.N,/OutputAmplifier/G1_out*%
X150421060Y-117214005D02*
X149684060Y-117214005D01*
X151315260Y-118108205D02*
X150421060Y-117214005D01*
X152781877Y-118108205D02*
X151315260Y-118108205D01*
X154851060Y-109645005D02*
X154851060Y-116039022D01*
X156497060Y-107999005D02*
X154851060Y-109645005D01*
X154851060Y-116039022D02*
X152781877Y-118108205D01*
D28*
%TO.N,VCC*%
X149584100Y-115889745D02*
X152142300Y-115889745D01*
X143500330Y-106893845D02*
X145486310Y-106893845D01*
X151644030Y-87736275D02*
X151644030Y-87656185D01*
X139447920Y-115771405D02*
X139722220Y-116045705D01*
X152027490Y-89603575D02*
X152027490Y-88119735D01*
X145486310Y-106893845D02*
X147125330Y-106893845D01*
D27*
X154724060Y-96442005D02*
X155100060Y-96442005D01*
D28*
X152364830Y-117284755D02*
X152364830Y-116145625D01*
D27*
X139862740Y-117164605D02*
X139759800Y-117061665D01*
D28*
X147125330Y-106893845D02*
X147780820Y-107549335D01*
X138121670Y-115771405D02*
X139447920Y-115771405D01*
X137847370Y-116045705D02*
X138121670Y-115771405D01*
X152027490Y-91369195D02*
X152027490Y-89603575D01*
X137847370Y-117024085D02*
X137847370Y-116045705D01*
D27*
X141389060Y-117164605D02*
X139862740Y-117164605D01*
D28*
X136884200Y-106518795D02*
X137859900Y-105543095D01*
X138767240Y-105543095D02*
X138767240Y-104772475D01*
D27*
X155100060Y-96442005D02*
X156497060Y-97839005D01*
D28*
X151644030Y-87736275D02*
X152027490Y-88119735D01*
X137859900Y-105543095D02*
X138767240Y-105543095D01*
X160193940Y-90128805D02*
X160193940Y-88442045D01*
X139722220Y-116045705D02*
X139722220Y-117024085D01*
X136884200Y-107971435D02*
X136884200Y-106518795D01*
D27*
X154978060Y-105993005D02*
X154978060Y-106983005D01*
D28*
X138767240Y-107771025D02*
X138767240Y-105543095D01*
%TO.N,GND*%
X140752970Y-106886465D02*
X141942960Y-106886465D01*
X152027490Y-85064945D02*
X152027490Y-83703575D01*
X145476180Y-118164735D02*
X145795950Y-117844975D01*
D27*
X153174060Y-95467325D02*
X151944900Y-94238165D01*
D28*
X143892070Y-118164735D02*
X145476180Y-118164735D01*
X137618800Y-112628555D02*
X137691240Y-112700985D01*
X152382570Y-114580005D02*
X153259480Y-114580005D01*
X153445820Y-114393665D02*
X153525920Y-114393665D01*
D27*
X156497060Y-100379005D02*
X156497060Y-102924005D01*
D28*
X151935160Y-94228435D02*
X151944900Y-94238165D01*
D27*
X156497060Y-102924005D02*
X154978060Y-104443005D01*
D28*
X153259480Y-114580005D02*
X153445820Y-114393665D01*
X152027490Y-85064945D02*
X152163480Y-85200935D01*
X136817060Y-110793005D02*
X136817060Y-111825725D01*
X149167420Y-107552225D02*
X149825800Y-106893845D01*
X137809800Y-112714335D02*
X137809800Y-110465765D01*
X160046970Y-84047425D02*
X160046970Y-82498885D01*
X137809800Y-110465765D02*
X137809800Y-110302625D01*
X151935160Y-94228435D02*
X151935160Y-93313965D01*
X137809800Y-112741965D02*
X138459800Y-112741965D01*
X137809800Y-110302625D02*
X138549900Y-109562515D01*
X141424670Y-85460765D02*
X143143250Y-87179345D01*
X145795950Y-117844975D02*
X147156690Y-117844975D01*
D27*
X153174060Y-96442005D02*
X153174060Y-95467325D01*
D28*
X136817060Y-111825725D02*
X137585910Y-112594575D01*
X143143250Y-91021295D02*
X143143250Y-87179345D01*
X152163480Y-85240985D02*
X152163480Y-85200935D01*
X149122260Y-107552225D02*
X149167420Y-107552225D01*
X137585910Y-112594575D02*
X137618800Y-112628555D01*
D27*
X139294562Y-119810005D02*
X139167562Y-119683005D01*
D28*
X149825800Y-106893845D02*
X151386310Y-106893845D01*
X143949930Y-119125595D02*
X143949930Y-118222605D01*
X136861850Y-109517815D02*
X137809800Y-110465765D01*
D27*
X139966060Y-119810005D02*
X139294562Y-119810005D01*
%TO.N,AGND*%
X156497060Y-95299005D02*
X157380943Y-95299005D01*
D28*
X151377490Y-83703575D02*
X151377490Y-82472675D01*
X152180090Y-107445845D02*
X152416430Y-107209505D01*
X151377490Y-85065355D02*
X151377490Y-83703575D01*
X151696650Y-80376895D02*
X152335320Y-79738225D01*
X152335320Y-79738225D02*
X154150520Y-79738225D01*
X153133430Y-87685235D02*
X153133430Y-87638015D01*
X152416430Y-107209505D02*
X152416430Y-106668755D01*
X150826680Y-85616165D02*
X151377490Y-85065355D01*
X148586430Y-106242875D02*
X151385340Y-106242875D01*
D27*
X158627320Y-94052628D02*
X158627320Y-89328835D01*
D28*
X142865160Y-116835605D02*
X142902030Y-116835605D01*
X151377490Y-82472675D02*
X151696650Y-82153505D01*
X143150690Y-116586955D02*
X144085950Y-116586955D01*
X144383950Y-116614745D02*
X146603360Y-116614745D01*
X144085950Y-116586955D02*
X144280060Y-116781055D01*
X152693180Y-89587895D02*
X152693180Y-88125485D01*
X142902030Y-116835605D02*
X143150690Y-116586955D01*
X150877840Y-97107595D02*
X151931090Y-97107595D01*
X148585470Y-106241905D02*
X148586430Y-106242875D01*
D27*
X149771060Y-113079005D02*
X149898060Y-113206005D01*
X148882060Y-113079005D02*
X149771060Y-113079005D01*
D28*
X150826680Y-85621885D02*
X150826680Y-85616165D01*
X157542480Y-89270005D02*
X158568490Y-89270005D01*
X144578190Y-97988195D02*
X145455910Y-97988195D01*
X151484310Y-107445845D02*
X152180090Y-107445845D01*
D27*
X158627320Y-89328835D02*
X158568490Y-89270005D01*
D28*
X145487270Y-106242875D02*
X148584500Y-106242875D01*
X151484310Y-106341845D02*
X152089520Y-106341845D01*
D27*
X157380943Y-95299005D02*
X158627320Y-94052628D01*
D28*
X151696650Y-82153505D02*
X151696650Y-80376895D01*
X148584500Y-106242875D02*
X148585470Y-106241905D01*
X152693180Y-88125485D02*
X153133430Y-87685235D01*
X152089520Y-106341845D02*
X152416430Y-106668755D01*
%TO.N,Net-(D1-A)*%
X160100450Y-86798565D02*
X160100450Y-85670885D01*
D27*
%TO.N,Net-(J2-Pad1)*%
X138404560Y-119194505D02*
X140900560Y-119194505D01*
X142405060Y-120699005D02*
X141516060Y-119810005D01*
X156502060Y-120699005D02*
X142405060Y-120699005D01*
X140900560Y-119194505D02*
X141516060Y-119810005D01*
X138341060Y-119258005D02*
X138404560Y-119194505D01*
X138341060Y-119810005D02*
X138341060Y-119258005D01*
D28*
%TO.N,Net-(U4-ADC_DOUT)*%
X138351340Y-118249725D02*
X136791060Y-119810005D01*
X138413700Y-118249725D02*
X138351340Y-118249725D01*
X138413700Y-118249725D02*
X138413700Y-117107755D01*
%TO.N,/Band Pass Filter/F2_Out*%
X145898540Y-103446645D02*
X145898540Y-102062955D01*
X145960860Y-102000635D02*
X145960860Y-100502355D01*
X145956640Y-100486445D02*
X147193130Y-99264135D01*
X145486310Y-103858885D02*
X145898540Y-103446645D01*
X145960860Y-102000635D02*
X147681840Y-102000635D01*
X145486310Y-104943845D02*
X145486310Y-103858885D01*
%TO.N,Net-(U2A-IN_A-)*%
X144559660Y-105593845D02*
X145486310Y-105593845D01*
X144410870Y-105445055D02*
X144559660Y-105593845D01*
X144410870Y-105445055D02*
X144410870Y-102000635D01*
X142991540Y-102035005D02*
X144376490Y-102035005D01*
%TO.N,/Sig_Out*%
X139109800Y-112741965D02*
X139109800Y-110569035D01*
X140834990Y-108843845D02*
X145486310Y-108843845D01*
X139109800Y-110569035D02*
X140834990Y-108843845D01*
X145486310Y-108843845D02*
X145486310Y-108193845D01*
%TO.N,/Band Pass Filter/F3_Out*%
X152396430Y-98941895D02*
X153012300Y-99557755D01*
X154216060Y-103948665D02*
X154216060Y-105687005D01*
X154527060Y-99547005D02*
X154527060Y-103637665D01*
X153012300Y-100887005D02*
X153012300Y-100734295D01*
X152616430Y-104943845D02*
X153012300Y-104547975D01*
X153578290Y-98598235D02*
X154527060Y-99547005D01*
X154527060Y-103637665D02*
X154216060Y-103948665D01*
X154216060Y-105687005D02*
X153708060Y-106195005D01*
X153012300Y-100734295D02*
X153012300Y-99557755D01*
X152396430Y-98598235D02*
X153578290Y-98598235D01*
X151386310Y-104943845D02*
X152616430Y-104943845D01*
D27*
X152285060Y-100887005D02*
X153012300Y-100887005D01*
D28*
X150903190Y-98598235D02*
X152396430Y-98598235D01*
X153012300Y-104547975D02*
X153012300Y-100887005D01*
%TO.N,Net-(U2D-IN_D-)*%
X151386310Y-105593845D02*
X152960900Y-105593845D01*
D27*
X153835060Y-100887005D02*
X153835060Y-102971665D01*
D28*
X153807210Y-104747535D02*
X153807210Y-102999515D01*
X152960900Y-105593845D02*
X153807210Y-104747535D01*
D27*
X153835060Y-102971665D02*
X153807210Y-102999515D01*
%TO.N,Net-(U2C-IN_C-)*%
X153014040Y-108862005D02*
X152345880Y-108193845D01*
D28*
X151386310Y-108193845D02*
X152345880Y-108193845D01*
X152345880Y-108193845D02*
X152494670Y-108342635D01*
X152494670Y-110704375D02*
X152494670Y-108342635D01*
D27*
X153708060Y-108862005D02*
X153014040Y-108862005D01*
D28*
%TO.N,/BufferBiasAmp/BBA_OUT*%
X155976550Y-82844775D02*
X159495850Y-81065985D01*
X154792780Y-82413285D02*
X155880450Y-82413285D01*
X153977490Y-83228575D02*
X154792780Y-82413285D01*
X155898990Y-84263195D02*
X155898990Y-82767215D01*
D27*
%TO.N,/Band Pass Filter/F1_In*%
X155944670Y-89317815D02*
X155944670Y-91258395D01*
X155944670Y-91258395D02*
X155740060Y-91463005D01*
X155740060Y-91463005D02*
X157988220Y-91463005D01*
D28*
X155898990Y-89272135D02*
X155898990Y-85813195D01*
D27*
X157988220Y-91463005D02*
X158011820Y-91486605D01*
%TO.N,/Band Pass Filter/F1_Out*%
X155740060Y-93013005D02*
X154979350Y-92252295D01*
D28*
X142976990Y-94825455D02*
X142976990Y-94026895D01*
X156786360Y-93009375D02*
X156134130Y-93009375D01*
X154087290Y-91486605D02*
X154852980Y-92252295D01*
X156883060Y-93013005D02*
X156786360Y-93009375D01*
D27*
X144440090Y-93878105D02*
X144463990Y-93902005D01*
D28*
X153977490Y-90078575D02*
X154087290Y-90188385D01*
X154087290Y-91486605D02*
X154087290Y-90188385D01*
X142976990Y-94026895D02*
X143125780Y-93878105D01*
D27*
X154979350Y-92252295D02*
X154852980Y-92252295D01*
X144463990Y-93902005D02*
X147104060Y-93902005D01*
D28*
X156782730Y-93009375D02*
X156779100Y-93009375D01*
X143125780Y-93878105D02*
X144310060Y-93878105D01*
X156779100Y-93009375D02*
X156883060Y-93013005D01*
X144310060Y-93878105D02*
X144440090Y-93878105D01*
%TO.N,/Band Pass Filter/F2_In*%
X142976990Y-97936995D02*
X142976990Y-96375455D01*
X142991540Y-100485005D02*
X144393510Y-100485005D01*
X142991540Y-100485005D02*
X142991540Y-98024855D01*
%TO.N,Net-(U1B-IN_B-)*%
X153291950Y-92241255D02*
X153291950Y-89639125D01*
X154087290Y-93036605D02*
X154808720Y-93758035D01*
X157290390Y-93758035D02*
X158011820Y-93036605D01*
X154808720Y-93758035D02*
X157290390Y-93758035D01*
X153291950Y-92241255D02*
X154087290Y-93036605D01*
%TO.N,/Band Pass Filter/F3_In*%
X150645520Y-102013725D02*
X150974100Y-102342305D01*
X151600000Y-102342305D02*
X152257210Y-102999515D01*
X149244940Y-102013725D02*
X149244940Y-98706485D01*
X149341340Y-98610085D02*
X149341340Y-97134335D01*
X150974100Y-102342305D02*
X151600000Y-102342305D01*
X149244940Y-102013725D02*
X150645520Y-102013725D01*
D27*
%TO.N,/Band Pass Filter/F4_In*%
X152855980Y-112158055D02*
X153708060Y-111305975D01*
X154260060Y-107745005D02*
X154343060Y-107828005D01*
X153708060Y-111305975D02*
X153708060Y-110412005D01*
D28*
X152311060Y-112158055D02*
X148633440Y-112158055D01*
X152855980Y-112158055D02*
X152311060Y-112158055D01*
D27*
X154343060Y-109777005D02*
X153708060Y-110412005D01*
X151448060Y-113206005D02*
X152496010Y-112158055D01*
X153708060Y-107745005D02*
X154260060Y-107745005D01*
X152496010Y-112158055D02*
X152855980Y-112158055D01*
X154343060Y-107828005D02*
X154343060Y-109777005D01*
D28*
%TO.N,/OutputAmplifier/Amp_Out*%
X142305060Y-111027625D02*
X143459090Y-111027625D01*
X146951660Y-109523005D02*
X145447040Y-111027625D01*
X146951660Y-108049805D02*
X146951660Y-109523005D01*
X145486310Y-107543845D02*
X146445700Y-107543845D01*
X146445700Y-107543845D02*
X146951660Y-108049805D01*
X145447040Y-111027625D02*
X143459090Y-111027625D01*
X143459090Y-114310655D02*
X143459090Y-111027625D01*
X143459090Y-114310655D02*
X145038170Y-115889745D01*
X145038170Y-115889745D02*
X146964100Y-115889745D01*
%TO.N,/BufferBiasAmp/BUF_OUT*%
X148233940Y-89603575D02*
X150077490Y-89603575D01*
X147321410Y-88691055D02*
X148233940Y-89603575D01*
X150077490Y-89603575D02*
X150727490Y-89603575D01*
%TO.N,Net-(U1A-IN_A+)*%
X149190580Y-91676535D02*
X150305880Y-91676535D01*
X150305880Y-91676535D02*
X151377490Y-90604925D01*
X151377490Y-90604925D02*
X151377490Y-89603575D01*
%TO.N,/BufferBiasAmp/BBAmp_IN*%
X149999060Y-86276765D02*
X149999060Y-83782005D01*
X153248650Y-85997995D02*
X153248650Y-85058175D01*
X152775490Y-84585015D02*
X153248650Y-85058175D01*
X152677490Y-83703575D02*
X152677490Y-82328515D01*
X152627400Y-86619245D02*
X153248650Y-85997995D01*
X152471650Y-82122685D02*
X152677490Y-82328515D01*
X150341540Y-86619245D02*
X152627400Y-86619245D01*
X152775490Y-84585015D02*
X152775490Y-83801575D01*
X152471650Y-82122685D02*
X152471650Y-80924615D01*
X149999060Y-86276765D02*
X150341540Y-86619245D01*
%TO.N,Net-(U1D-IN_D-)*%
X147339090Y-83306075D02*
X149720560Y-80924615D01*
X149720560Y-80924615D02*
X150921660Y-80924615D01*
X150921660Y-82128515D02*
X150921660Y-80924615D01*
X150727490Y-82322685D02*
X150921660Y-82128515D01*
X150727490Y-83703575D02*
X150727490Y-82322685D01*
%TO.N,Net-(U1C-IN_C-)*%
X153327490Y-83703575D02*
X153327490Y-82721815D01*
X154153010Y-81285735D02*
X155508690Y-81285735D01*
X153327490Y-82721815D02*
X154033660Y-82015645D01*
X154033660Y-82015645D02*
X154033660Y-81405085D01*
X155508690Y-81285735D02*
X155880450Y-80913975D01*
%TO.N,/BufferBiasAmp/BIAS_IN*%
X147321410Y-87141055D02*
X147321410Y-84873755D01*
%TO.N,Net-(D2-A)*%
X144593250Y-92634385D02*
X144593250Y-91021295D01*
%TO.N,Net-(R21-Pad2)*%
X138763400Y-95253425D02*
X138763400Y-92080635D01*
X142489500Y-92080635D02*
X143078910Y-92670045D01*
X138763400Y-92080635D02*
X142489500Y-92080635D01*
%TO.N,/BufferBiasAmp/BBA_IN*%
X146902540Y-90938505D02*
X147640580Y-91676535D01*
X138884670Y-90409365D02*
X138884670Y-85460765D01*
X143453750Y-86184185D02*
X146902540Y-89632975D01*
X142539820Y-83752785D02*
X143453750Y-84666715D01*
X138884670Y-85460765D02*
X140592650Y-83752785D01*
X146902540Y-90938505D02*
X146902540Y-89632975D01*
X143453750Y-86184185D02*
X143453750Y-84666715D01*
X140592650Y-83752785D02*
X142539820Y-83752785D01*
%TO.N,/Band Pass Filter/BPF_OUT*%
X148537110Y-110704375D02*
X150944670Y-110704375D01*
X150944670Y-110704375D02*
X150944670Y-109917435D01*
X150944670Y-109917435D02*
X151386310Y-109475805D01*
X145435380Y-117194975D02*
X147060400Y-117194975D01*
X145217250Y-117332995D02*
X145297350Y-117332995D01*
X145297350Y-117332995D02*
X145435380Y-117194975D01*
X146113770Y-112158055D02*
X147083440Y-112158055D01*
X144809960Y-113461855D02*
X146113770Y-112158055D01*
X151386310Y-109475805D02*
X151386310Y-108843845D01*
X147083440Y-112158055D02*
X148537110Y-110704375D01*
D27*
%TO.N,/OutputAmplifier/G2_out*%
X154597060Y-110031005D02*
X154470060Y-110158005D01*
X152780617Y-117750255D02*
X151607310Y-117750255D01*
X155681560Y-106274505D02*
X155681560Y-107676505D01*
X156497060Y-105459005D02*
X155681560Y-106274505D01*
X154470060Y-110158005D02*
X154470060Y-116060812D01*
X150421060Y-116564005D02*
X149684060Y-116564005D01*
X151607310Y-117750255D02*
X150421060Y-116564005D01*
X154597060Y-108761005D02*
X154597060Y-110031005D01*
X154470060Y-116060812D02*
X152780617Y-117750255D01*
X155681560Y-107676505D02*
X154597060Y-108761005D01*
%TO.N,Net-(U4-CLK)*%
X156502060Y-118159005D02*
X154777350Y-119883715D01*
X142859770Y-119883715D02*
X141148430Y-118172375D01*
X139578389Y-118172375D02*
X139109800Y-117703786D01*
X141148430Y-118172375D02*
X139578389Y-118172375D01*
X139109800Y-117703786D02*
X139109800Y-117061665D01*
X154777350Y-119883715D02*
X142859770Y-119883715D01*
%TO.N,Net-(U4-~{CS})*%
X142151060Y-118540005D02*
X143240770Y-119629715D01*
D28*
X142151060Y-115133225D02*
X139759800Y-112741965D01*
D27*
X143240770Y-119629715D02*
X152491350Y-119629715D01*
D28*
X142151060Y-118540005D02*
X142151060Y-115133225D01*
D27*
X152491350Y-119629715D02*
X156502060Y-115619005D01*
%TD*%
%TA.AperFunction,Conductor*%
%TO.N,AGND*%
G36*
X151392139Y-114460080D02*
G01*
X151437894Y-114512884D01*
X151449100Y-114564395D01*
X151449100Y-115511245D01*
X151429415Y-115578284D01*
X151376611Y-115624039D01*
X151325100Y-115635245D01*
X150443295Y-115635245D01*
X150376256Y-115615560D01*
X150374403Y-115614346D01*
X150343809Y-115593903D01*
X150306619Y-115586505D01*
X150306618Y-115586505D01*
X149061502Y-115586505D01*
X149061501Y-115586505D01*
X149024310Y-115593903D01*
X148982137Y-115622082D01*
X148953958Y-115664255D01*
X148946560Y-115701446D01*
X148946560Y-116126563D01*
X148953958Y-116163753D01*
X148958206Y-116170110D01*
X148979086Y-116236787D01*
X148960603Y-116304168D01*
X148958210Y-116307892D01*
X148953958Y-116314254D01*
X148946560Y-116351446D01*
X148946560Y-116776563D01*
X148953958Y-116813754D01*
X148958208Y-116820114D01*
X148979086Y-116886792D01*
X148960601Y-116954172D01*
X148958208Y-116957896D01*
X148953958Y-116964255D01*
X148946560Y-117001446D01*
X148946560Y-117426563D01*
X148953958Y-117463753D01*
X148958206Y-117470110D01*
X148979086Y-117536787D01*
X148960603Y-117604168D01*
X148958210Y-117607892D01*
X148953958Y-117614254D01*
X148946560Y-117651446D01*
X148946560Y-118076563D01*
X148953958Y-118113754D01*
X148982137Y-118155927D01*
X149024310Y-118184106D01*
X149024312Y-118184107D01*
X149052265Y-118189667D01*
X149061501Y-118191505D01*
X149061502Y-118191505D01*
X150100083Y-118191505D01*
X150167122Y-118211190D01*
X150187764Y-118227824D01*
X150470158Y-118510218D01*
X150480493Y-118524781D01*
X150481181Y-118524233D01*
X150489890Y-118535154D01*
X150512864Y-118553475D01*
X150518052Y-118558112D01*
X150523220Y-118563280D01*
X150529413Y-118567171D01*
X150535080Y-118571192D01*
X150546259Y-118580107D01*
X150558055Y-118589515D01*
X150567971Y-118594289D01*
X150578354Y-118597923D01*
X150607551Y-118601212D01*
X150614412Y-118602377D01*
X150621539Y-118604005D01*
X150628852Y-118604005D01*
X150635790Y-118604394D01*
X150664995Y-118607685D01*
X150678877Y-118606121D01*
X150678975Y-118606996D01*
X150696580Y-118604005D01*
X151325100Y-118604005D01*
X151392139Y-118623690D01*
X151437894Y-118676494D01*
X151449100Y-118728005D01*
X151449100Y-119314715D01*
X151429415Y-119381754D01*
X151376611Y-119427509D01*
X151325100Y-119438715D01*
X145223100Y-119438715D01*
X145156061Y-119419030D01*
X145110306Y-119366226D01*
X145099100Y-119314715D01*
X145099100Y-118543235D01*
X145118785Y-118476196D01*
X145171589Y-118430441D01*
X145223100Y-118419235D01*
X145438898Y-118419235D01*
X145463090Y-118421617D01*
X145476176Y-118424221D01*
X145501245Y-118419235D01*
X145501247Y-118419235D01*
X145518953Y-118415712D01*
X145563509Y-118406850D01*
X145569604Y-118406250D01*
X145572550Y-118405357D01*
X145575536Y-118404609D01*
X145578176Y-118403027D01*
X145580891Y-118401575D01*
X145585625Y-118397690D01*
X145600515Y-118387741D01*
X145638411Y-118362421D01*
X145638411Y-118362420D01*
X145647142Y-118356587D01*
X145647149Y-118356580D01*
X145659664Y-118348219D01*
X145667073Y-118337128D01*
X145682496Y-118318336D01*
X145865047Y-118135792D01*
X145926371Y-118102308D01*
X145952727Y-118099475D01*
X146258138Y-118099475D01*
X146325177Y-118119160D01*
X146361239Y-118154583D01*
X146362136Y-118155926D01*
X146404310Y-118184106D01*
X146404312Y-118184107D01*
X146432265Y-118189667D01*
X146441501Y-118191505D01*
X146441502Y-118191505D01*
X147686619Y-118191505D01*
X147694017Y-118190033D01*
X147723808Y-118184107D01*
X147765982Y-118155927D01*
X147794162Y-118113753D01*
X147801560Y-118076563D01*
X147801560Y-117651447D01*
X147800733Y-117647292D01*
X147800088Y-117644048D01*
X147794162Y-117614257D01*
X147789913Y-117607899D01*
X147769033Y-117541224D01*
X147787515Y-117473843D01*
X147789914Y-117470110D01*
X147794162Y-117463753D01*
X147801560Y-117426563D01*
X147801560Y-117050574D01*
X147821245Y-116983535D01*
X147856677Y-116947467D01*
X147857184Y-116947127D01*
X147913323Y-116863108D01*
X147913324Y-116863108D01*
X147928059Y-116789025D01*
X147928059Y-116338990D01*
X147913322Y-116264898D01*
X147913321Y-116264895D01*
X147857183Y-116180880D01*
X147856668Y-116180536D01*
X147855798Y-116179495D01*
X147848548Y-116172245D01*
X147849196Y-116171596D01*
X147811864Y-116126923D01*
X147801560Y-116077435D01*
X147801560Y-115701446D01*
X147799722Y-115692210D01*
X147794162Y-115664257D01*
X147774777Y-115635245D01*
X147765982Y-115622082D01*
X147723809Y-115593903D01*
X147686619Y-115586505D01*
X147686618Y-115586505D01*
X146441502Y-115586505D01*
X146441501Y-115586505D01*
X146404310Y-115593903D01*
X146373717Y-115614346D01*
X146307040Y-115635225D01*
X146304825Y-115635245D01*
X145223100Y-115635245D01*
X145156061Y-115615560D01*
X145110306Y-115562756D01*
X145099100Y-115511245D01*
X145099100Y-114564395D01*
X145118785Y-114497356D01*
X145171589Y-114451601D01*
X145223100Y-114440395D01*
X151325100Y-114440395D01*
X151392139Y-114460080D01*
G37*
%TD.AperFunction*%
%TA.AperFunction,Conductor*%
G36*
X146154741Y-116163930D02*
G01*
X146200496Y-116216734D01*
X146210440Y-116285892D01*
X146209319Y-116292436D01*
X146200060Y-116338984D01*
X146200060Y-116789018D01*
X146200710Y-116792281D01*
X146200553Y-116794025D01*
X146200658Y-116795083D01*
X146200457Y-116795102D01*
X146194484Y-116861872D01*
X146151622Y-116917051D01*
X146085733Y-116940297D01*
X146079093Y-116940475D01*
X145472664Y-116940475D01*
X145448468Y-116938091D01*
X145435390Y-116935489D01*
X145435389Y-116935489D01*
X145435387Y-116935489D01*
X145414360Y-116939671D01*
X145414331Y-116939675D01*
X145388422Y-116944829D01*
X145344836Y-116945685D01*
X145280458Y-116935489D01*
X145217250Y-116925478D01*
X145217248Y-116925478D01*
X145207612Y-116923952D01*
X145208069Y-116921064D01*
X145156061Y-116905793D01*
X145110306Y-116852989D01*
X145099100Y-116801478D01*
X145099100Y-116268245D01*
X145118785Y-116201206D01*
X145171589Y-116155451D01*
X145223100Y-116144245D01*
X146087702Y-116144245D01*
X146154741Y-116163930D01*
G37*
%TD.AperFunction*%
%TD*%
M02*
