%TF.GenerationSoftware,KiCad,Pcbnew,7.0.7*%
%TF.CreationDate,2023-10-04T23:23:26-04:00*%
%TF.ProjectId,AcousticsSingleChannel,41636f75-7374-4696-9373-53696e676c65,rev?*%
%TF.SameCoordinates,Original*%
%TF.FileFunction,Soldermask,Top*%
%TF.FilePolarity,Negative*%
%FSLAX46Y46*%
G04 Gerber Fmt 4.6, Leading zero omitted, Abs format (unit mm)*
G04 Created by KiCad (PCBNEW 7.0.7) date 2023-10-04 23:23:26*
%MOMM*%
%LPD*%
G01*
G04 APERTURE LIST*
G04 Aperture macros list*
%AMRoundRect*
0 Rectangle with rounded corners*
0 $1 Rounding radius*
0 $2 $3 $4 $5 $6 $7 $8 $9 X,Y pos of 4 corners*
0 Add a 4 corners polygon primitive as box body*
4,1,4,$2,$3,$4,$5,$6,$7,$8,$9,$2,$3,0*
0 Add four circle primitives for the rounded corners*
1,1,$1+$1,$2,$3*
1,1,$1+$1,$4,$5*
1,1,$1+$1,$6,$7*
1,1,$1+$1,$8,$9*
0 Add four rect primitives between the rounded corners*
20,1,$1+$1,$2,$3,$4,$5,0*
20,1,$1+$1,$4,$5,$6,$7,0*
20,1,$1+$1,$6,$7,$8,$9,0*
20,1,$1+$1,$8,$9,$2,$3,0*%
G04 Aperture macros list end*
%ADD10RoundRect,0.099500X0.175500X0.650500X-0.175500X0.650500X-0.175500X-0.650500X0.175500X-0.650500X0*%
%ADD11RoundRect,0.099500X0.650500X-0.175500X0.650500X0.175500X-0.650500X0.175500X-0.650500X-0.175500X0*%
%ADD12RoundRect,0.050000X-0.425000X-0.425000X0.425000X-0.425000X0.425000X0.425000X-0.425000X0.425000X0*%
%ADD13C,1.624000*%
%ADD14RoundRect,0.050000X-0.425000X0.425000X-0.425000X-0.425000X0.425000X-0.425000X0.425000X0.425000X0*%
%ADD15RoundRect,0.050000X0.425000X0.425000X-0.425000X0.425000X-0.425000X-0.425000X0.425000X-0.425000X0*%
%ADD16RoundRect,0.050000X-0.300000X-0.400000X0.300000X-0.400000X0.300000X0.400000X-0.300000X0.400000X0*%
%ADD17RoundRect,0.050000X0.610000X-0.200000X0.610000X0.200000X-0.610000X0.200000X-0.610000X-0.200000X0*%
%ADD18RoundRect,0.050000X0.625000X-0.625000X0.625000X0.625000X-0.625000X0.625000X-0.625000X-0.625000X0*%
%ADD19C,1.350000*%
%ADD20RoundRect,0.050000X0.550000X0.750000X-0.550000X0.750000X-0.550000X-0.750000X0.550000X-0.750000X0*%
%ADD21RoundRect,0.050000X0.425000X-0.425000X0.425000X0.425000X-0.425000X0.425000X-0.425000X-0.425000X0*%
%ADD22RoundRect,0.050000X-0.247465X0.920210X-0.247465X-0.920210X0.247465X-0.920210X0.247465X0.920210X0*%
%ADD23RoundRect,0.297465X0.000000X0.672745X0.000000X-0.672745X0.000000X-0.672745X0.000000X0.672745X0*%
%ADD24RoundRect,0.050000X0.400000X-0.300000X0.400000X0.300000X-0.400000X0.300000X-0.400000X-0.300000X0*%
%ADD25RoundRect,0.050000X-0.400000X0.300000X-0.400000X-0.300000X0.400000X-0.300000X0.400000X0.300000X0*%
%ADD26RoundRect,0.050000X0.785000X0.785000X-0.785000X0.785000X-0.785000X-0.785000X0.785000X-0.785000X0*%
%ADD27C,1.670000*%
G04 APERTURE END LIST*
D10*
%TO.C,U1*%
X150077490Y-89603575D03*
X150727490Y-89603575D03*
X151377490Y-89603575D03*
X152027490Y-89603575D03*
X152677490Y-89603575D03*
X153327490Y-89603575D03*
X153977490Y-89603575D03*
X153977490Y-83703575D03*
X153327490Y-83703575D03*
X152677490Y-83703575D03*
X152027490Y-83703575D03*
X151377490Y-83703575D03*
X150727490Y-83703575D03*
X150077490Y-83703575D03*
%TD*%
D11*
%TO.C,U2*%
X145486310Y-104943845D03*
X145486310Y-105593845D03*
X145486310Y-106243845D03*
X145486310Y-106893845D03*
X145486310Y-107543845D03*
X145486310Y-108193845D03*
X145486310Y-108843845D03*
X151386310Y-108843845D03*
X151386310Y-108193845D03*
X151386310Y-107543845D03*
X151386310Y-106893845D03*
X151386310Y-106243845D03*
X151386310Y-105593845D03*
X151386310Y-104943845D03*
%TD*%
D12*
%TO.C,R7*%
X144410870Y-102000635D03*
X145960870Y-102000635D03*
%TD*%
D13*
%TO.C,*%
X147104060Y-93902005D03*
%TD*%
D14*
%TO.C,C13*%
X136861850Y-107967815D03*
X136861850Y-109517815D03*
%TD*%
%TO.C,R5*%
X138763400Y-90530635D03*
X138763400Y-92080635D03*
%TD*%
D15*
%TO.C,R13*%
X152494670Y-110704375D03*
X150944670Y-110704375D03*
%TD*%
D16*
%TO.C,D2*%
X143143250Y-91021295D03*
X144593250Y-91021295D03*
%TD*%
D14*
%TO.C,R15*%
X153708060Y-106195005D03*
X153708060Y-107745005D03*
%TD*%
D12*
%TO.C,C17*%
X141946670Y-106890185D03*
X143496670Y-106890185D03*
%TD*%
D15*
%TO.C,R21*%
X144628910Y-92670045D03*
X143078910Y-92670045D03*
%TD*%
D12*
%TO.C,C2*%
X147640580Y-91676535D03*
X149190580Y-91676535D03*
%TD*%
D15*
%TO.C,R10*%
X157494670Y-89317815D03*
X155944670Y-89317815D03*
%TD*%
D17*
%TO.C,U3*%
X147064060Y-115914005D03*
X147064060Y-116564005D03*
X147064060Y-117214005D03*
X147064060Y-117864005D03*
X149684060Y-117864005D03*
X149684060Y-117214005D03*
X149684060Y-116564005D03*
X149684060Y-115914005D03*
%TD*%
D14*
%TO.C,C18*%
X138549900Y-108012515D03*
X138549900Y-109562515D03*
%TD*%
D15*
%TO.C,C8*%
X148633440Y-112158055D03*
X147083440Y-112158055D03*
%TD*%
D14*
%TO.C,C1*%
X147321410Y-87141055D03*
X147321410Y-88691055D03*
%TD*%
D12*
%TO.C,R17*%
X149898060Y-113206005D03*
X151448060Y-113206005D03*
%TD*%
D15*
%TO.C,R26*%
X138341060Y-119810005D03*
X136791060Y-119810005D03*
%TD*%
D18*
%TO.C,J3*%
X156497060Y-100379005D03*
D19*
X156497060Y-97839005D03*
X156497060Y-95299005D03*
%TD*%
D12*
%TO.C,R27*%
X139966060Y-119810005D03*
X141516060Y-119810005D03*
%TD*%
D14*
%TO.C,R3*%
X154047310Y-79978095D03*
X154047310Y-81528095D03*
%TD*%
D20*
%TO.C,SW2*%
X138763400Y-95253425D03*
X138763400Y-104153435D03*
%TD*%
D13*
%TO.C,*%
X159495850Y-81065985D03*
%TD*%
D14*
%TO.C,R25*%
X160108210Y-86769675D03*
X160108210Y-88319675D03*
%TD*%
%TO.C,C6*%
X142991540Y-100485005D03*
X142991540Y-102035005D03*
%TD*%
D13*
%TO.C,*%
X147193130Y-99264135D03*
%TD*%
D14*
%TO.C,C11*%
X143942690Y-116629235D03*
X143942690Y-118179235D03*
%TD*%
D15*
%TO.C,R12*%
X153835060Y-100887005D03*
X152285060Y-100887005D03*
%TD*%
D13*
%TO.C,*%
X142198850Y-110921425D03*
%TD*%
D12*
%TO.C,R2*%
X150921650Y-80924615D03*
X152471650Y-80924615D03*
%TD*%
D15*
%TO.C,R11*%
X144578190Y-97988195D03*
X143028190Y-97988195D03*
%TD*%
D21*
%TO.C,R6*%
X154087290Y-93036605D03*
X154087290Y-91486605D03*
%TD*%
D12*
%TO.C,C7*%
X149341340Y-98610085D03*
X150891340Y-98610085D03*
%TD*%
D21*
%TO.C,R4*%
X147339090Y-84856075D03*
X147339090Y-83306075D03*
%TD*%
D12*
%TO.C,R14*%
X147694940Y-102013725D03*
X149244940Y-102013725D03*
%TD*%
D21*
%TO.C,C16*%
X151935160Y-91461515D03*
X151935160Y-93011515D03*
%TD*%
D13*
%TO.C,*%
X144809960Y-113461855D03*
%TD*%
D18*
%TO.C,J1*%
X156497060Y-110539005D03*
D19*
X156497060Y-107999005D03*
X156497060Y-105459005D03*
%TD*%
D15*
%TO.C,R16*%
X150871210Y-97114215D03*
X149321210Y-97114215D03*
%TD*%
D14*
%TO.C,R1*%
X155815290Y-81133515D03*
X155815290Y-82683515D03*
%TD*%
D21*
%TO.C,C10*%
X153708060Y-110412005D03*
X153708060Y-108862005D03*
%TD*%
D14*
%TO.C,R8*%
X155898990Y-84263195D03*
X155898990Y-85813195D03*
%TD*%
%TO.C,C15*%
X154978060Y-104443005D03*
X154978060Y-105993005D03*
%TD*%
D18*
%TO.C,J2*%
X156502060Y-120699005D03*
D19*
X156502060Y-118159005D03*
X156502060Y-115619005D03*
%TD*%
D14*
%TO.C,C3*%
X155740060Y-91463005D03*
X155740060Y-93013005D03*
%TD*%
%TO.C,C12*%
X152381510Y-114578945D03*
X152381510Y-116128945D03*
%TD*%
D12*
%TO.C,C14*%
X153174060Y-96442005D03*
X154724060Y-96442005D03*
%TD*%
D22*
%TO.C,U4*%
X139759800Y-112741965D03*
D23*
X139109800Y-112741965D03*
X138459800Y-112741965D03*
X137809800Y-112741965D03*
X137809800Y-117061665D03*
X138459800Y-117061665D03*
X139109800Y-117061665D03*
X139759800Y-117061665D03*
%TD*%
D24*
%TO.C,D1*%
X160059220Y-85526345D03*
D25*
X160059220Y-84076345D03*
%TD*%
D14*
%TO.C,C5*%
X158011820Y-91486605D03*
X158011820Y-93036605D03*
%TD*%
D26*
%TO.C,J8*%
X141424670Y-85460765D03*
D27*
X138884670Y-85460765D03*
%TD*%
D12*
%TO.C,C9*%
X152257210Y-102999515D03*
X153807210Y-102999515D03*
%TD*%
%TO.C,C4*%
X144400800Y-100492295D03*
X145950800Y-100492295D03*
%TD*%
D13*
%TO.C,*%
X152396430Y-98598235D03*
%TD*%
D14*
%TO.C,R9*%
X142976990Y-94825455D03*
X142976990Y-96375455D03*
%TD*%
M02*
